<svg width="476" height="477" viewBox="0 0 476 477" fill="none" xmlns="http://www.w3.org/2000/svg">
<path d="M228.376 219.549C227.584 216.622 225.414 214.195 224.428 213.145C221.174 209.575 216.753 207.281 211.958 206.676C207.067 206.158 202.148 207.37 198.056 210.101C196.286 211.283 194.75 212.783 193.526 214.524C192.241 216.327 191.125 218.245 190.195 220.254C190.027 220.71 189.912 221.184 189.855 221.667C189.801 222.349 189.795 223.034 189.835 223.717C189.94 225.181 190.363 226.517 190.413 227.237C190.446 227.975 190.532 228.71 190.671 229.436C190.834 230.216 191.157 230.953 191.62 231.601C192.001 232.2 192.441 232.759 192.931 233.271C193.33 233.806 193.838 234.249 194.42 234.574C195.109 234.992 195.681 235.577 196.081 236.276C196.567 237.115 199.05 238.95 201.42 239.972C204.639 241.941 208.236 243.212 211.978 243.703C213.393 243.855 214.822 243.79 216.217 243.508C217.556 243.185 218.83 242.641 219.988 241.896C221.55 240.639 222.914 239.154 224.032 237.491C225.477 235.574 226.627 233.451 227.442 231.193C227.902 230.084 228.239 228.929 228.447 227.748C229.057 226.125 229.185 224.362 228.815 222.669C228.84 221.612 228.691 220.558 228.376 219.549ZM224.823 234.263C224.295 235.037 223.596 235.678 222.78 236.139C222.279 236.312 221.799 236.54 221.347 236.818C220.586 237.293 219.884 237.856 219.257 238.497C217.963 239.684 216.441 241.2 213.953 241.445C213.517 241.53 213.072 241.563 212.628 241.541C211.7 241.442 210.778 241.293 209.865 241.096C207.749 240.536 204.905 240.168 202.857 239.167C202.185 238.75 201.544 238.285 200.939 237.777C200.334 237.272 199.756 236.734 199.209 236.167C196.335 232.821 195.499 230.953 194.538 229.905C194.081 229.359 193.66 228.962 193.309 228.54C192.848 228.072 192.473 227.526 192.202 226.928C191.285 224.9 191.168 222.599 191.875 220.488C192.609 218.275 193.853 216.265 195.505 214.619C198.422 211.732 202.042 209.657 206.007 208.599C206.542 208.47 206.93 208.318 207.336 208.278L207.949 208.129C208.166 208.027 212.233 207.74 213.589 208.152C216.04 208.631 218.367 209.603 220.431 211.007C222.495 212.411 224.252 214.219 225.597 216.321C226.47 217.766 227.102 219.343 227.468 220.991C227.989 222.861 228.092 224.824 227.77 226.739C227.674 226.908 227.569 227.072 227.456 227.231C226.657 228.09 225.62 233.156 224.823 234.263ZM221.979 222.727C221.956 222.186 221.859 221.65 221.693 221.134C221.558 220.667 221.363 220.219 221.113 219.802C220.929 219.375 220.689 218.975 220.4 218.611C219.842 217.956 219.397 217.357 219.074 217.019C216.991 214.657 214.181 213.053 211.087 212.459C207.797 211.9 202.435 213.024 200.113 215.74C199.66 216.324 199.253 216.942 198.896 217.59C198.164 218.898 197.558 220.209 196.887 221.527C196.698 222.29 196.692 223.087 196.867 223.852C197.037 224.826 197.374 225.667 197.364 226.144C197.349 226.626 197.361 227.109 197.398 227.591C197.469 228.11 197.671 228.602 197.986 229.02C198.344 229.639 198.763 230.22 199.238 230.754C199.941 231.457 200.612 231.719 201.218 232.263C202.126 233.122 203.204 233.781 204.383 234.199C206.42 235.491 208.699 236.354 211.081 236.735C212.006 236.88 212.949 236.871 213.871 236.708C214.755 236.515 215.594 236.159 216.347 235.659C216.945 235.182 217.467 234.618 217.898 233.986L218.838 232.678C219.728 231.433 220.461 230.082 221.018 228.657C221.346 227.964 221.574 227.228 221.696 226.472C221.762 226.057 222.321 223.451 222.019 222.718L221.979 222.727ZM220.621 225.984C220.457 226.339 220.146 226.531 219.927 227.241C219.613 228.389 219.149 229.491 218.548 230.519C217.907 231.306 213.65 234.35 212.217 234.481C212.157 234.545 211.879 234.562 211.443 234.518C211.008 234.474 210.481 234.36 209.833 234.193C208.606 233.8 206.807 233.828 205.503 233.254C204.706 232.691 203.986 232.026 203.36 231.278C201.734 229.069 201.325 227.962 200.702 227.381C200.436 227.117 200.151 226.872 199.85 226.648C199.526 226.408 199.256 226.102 199.058 225.75C198.741 225.173 198.546 224.537 198.488 223.881C198.429 223.225 198.508 222.565 198.718 221.941C199.166 220.6 199.953 219.398 201.003 218.452C201.435 218.073 203.493 216.019 203.781 215.866C204.88 215.241 206.079 214.81 207.325 214.592C207.648 214.514 211.193 213.655 212.006 214.057C215.071 214.758 217.753 216.597 219.511 219.2C219.773 219.638 219.994 220.1 220.169 220.58C220.402 221.07 220.554 221.595 220.62 222.133C221.089 223.378 221.08 224.751 220.597 225.989L220.621 225.984ZM243.615 210.477C243.165 209.48 242.645 208.259 242.038 207.092C241.475 205.831 240.808 204.618 240.045 203.467C236.974 198.589 231.911 194.933 229.471 193.553C225.525 191.085 221.074 189.537 216.447 189.023C211.797 188.567 207.103 189.051 202.643 190.445C198.178 191.743 193.864 193.51 189.771 195.716C185.699 197.941 181.724 200.601 178.745 204.316C177.412 205.831 176.16 207.414 174.991 209.058C173.794 210.803 172.733 212.636 171.817 214.542C169.825 218.452 168.83 222.792 168.918 227.178C168.914 228.435 169.79 231.125 171.128 233.487C171.738 234.643 172.438 235.75 173.22 236.798C173.931 237.74 174.432 238.641 174.859 239.203C176.89 242.262 177.184 243.097 180.276 245.9C182.723 247.999 185.344 249.888 188.11 251.545C188.976 251.952 189.81 252.423 190.607 252.953C192.006 254.128 197.324 256.84 202.179 258.192C202.621 258.335 203.51 258.635 204.764 259.072C206.368 259.539 207.997 259.919 209.642 260.21L212.799 260.635C213.927 260.653 215.11 260.724 216.328 260.703C218.93 260.565 221.488 259.971 223.885 258.948C228.706 256.813 232.861 253.417 235.911 249.117C238.719 245.111 240.073 241.215 241.172 238.986C243.008 234.696 244.237 230.172 244.825 225.544C245.016 223.893 245.06 222.768 245.15 221.732C245.24 220.695 245.108 219.771 245.035 218.508C244.894 217.478 244.617 212.896 243.591 210.483L243.615 210.477ZM243.67 216.477C243.662 216.994 243.703 218.781 243.684 219.459C243.665 220.137 243.704 220.984 243.613 222.187C243.496 224.594 241.856 232.118 241.16 234.365C240.571 236.263 235.746 244.383 235.203 245.197C233.031 249.1 229.985 252.448 226.302 254.978C223.978 256.631 221.308 257.735 218.495 258.208C216.117 258.553 213.71 258.654 211.311 258.509L209.42 258.401C208.795 258.328 208.164 258.198 207.557 258.096C206.95 257.993 206.348 257.881 205.763 257.765C205.177 257.649 204.617 257.469 204.063 257.345C202.496 256.993 196.771 254.213 195.454 253.309C192.495 251.506 189.661 249.506 186.971 247.322L184.323 245.186C183.574 244.535 182.925 243.986 182.311 243.511C179.971 241.583 178.466 240.658 176.246 238.227C173.313 234.879 170.931 230.749 170.588 226.241C170.246 221.734 172.213 217.208 174.78 213.442C176.849 210.338 180.093 207.615 182.845 204.371C184.266 202.829 185.861 201.455 187.596 200.276C189.255 199.084 190.927 198.014 192.511 197.098C193.417 196.546 194.133 196.132 194.821 195.707C195.166 195.482 195.544 195.258 195.891 195.041C196.229 194.683 196.608 194.366 197.018 194.094C199.337 192.535 203.532 191.436 206.271 190.822C211.103 189.647 216.15 189.692 220.959 190.952C225.768 192.212 230.188 194.647 233.82 198.039C236.297 200.313 238.386 202.975 240.006 205.921C241.578 208.734 243.392 212.96 243.646 216.483L243.67 216.477ZM236.088 209.672C235.872 209.193 235.646 208.707 235.416 208.172C235.187 207.637 234.861 207.217 234.588 206.709C232.35 202.727 228.444 199.657 226.592 198.4C223.57 196.245 220.102 194.797 216.444 194.163C212.726 193.611 208.928 194.015 205.409 195.339C198.387 197.788 192.486 202.119 186.807 207.02C184.496 209.543 182.733 212.517 181.629 215.754C180.525 218.992 180.104 222.422 180.393 225.83C180.45 226.065 180.463 226.395 180.529 226.77C180.595 227.144 180.821 227.53 180.993 227.963C181.164 228.395 181.367 228.854 181.567 229.337C181.767 229.821 182.06 230.274 182.315 230.744C182.789 231.661 183.312 232.55 183.884 233.408C184.355 234.217 184.764 234.908 185.023 235.394C185.672 236.701 186.007 237.535 186.499 238.363C187.082 239.403 187.798 240.362 188.63 241.215C189.342 242.019 190.108 242.773 190.924 243.471C191.994 244.49 193.116 245.453 194.286 246.357C194.95 246.731 195.576 247.167 196.158 247.659C197.085 248.806 201.14 251.325 204.958 252.554C205.604 252.878 206.277 253.14 206.971 253.339C208.244 253.756 209.55 254.066 210.874 254.265C211.714 254.295 212.564 254.372 213.404 254.401C214.349 254.342 215.289 254.215 216.216 254.02C217.2 253.792 218.158 253.468 219.078 253.052C219.542 252.84 220.033 252.63 220.503 252.408L221.865 251.604C225.423 249.422 228.474 246.505 230.813 243.05C231.328 242.295 231.787 241.502 232.186 240.68C232.586 239.962 232.946 239.222 233.264 238.465C233.576 237.757 233.871 237.12 234.165 236.583L234.834 235.016C236.299 231.622 237.36 228.069 237.997 224.429C238.122 223.126 238.255 222.229 238.333 221.42C238.412 220.611 238.326 219.842 238.284 218.845C238.278 215.487 236.524 210.615 236.064 209.678L236.088 209.672ZM237.12 218.196C237.346 219.68 236.851 219.8 236.799 221.683C236.614 223.566 235.919 229.048 234.963 231.043C234.48 232.075 231.143 236.957 229.729 239.745C228.064 242.82 225.84 245.559 223.171 247.82C222.634 248.335 222.054 248.804 221.438 249.221L219.668 250.265C219.021 250.654 218.237 250.919 217.474 251.311C215.784 251.944 214.007 252.313 212.205 252.405C210.322 252.48 208.441 252.232 206.642 251.673C205.501 251.213 204.394 250.672 203.329 250.055C202.262 249.424 201.235 248.729 200.253 247.972C198.138 246.289 196.144 244.46 194.284 242.499C192.912 240.993 191.882 239.97 191.053 239.123C190.223 238.276 189.504 237.644 188.795 236.984C187.989 236.263 187.257 235.462 186.61 234.594C184.347 231.789 182.823 228.461 182.177 224.915C181.808 221.323 182.653 217.711 184.578 214.654C185.994 212.082 188.444 209.826 190.428 207.158C191.489 205.904 192.69 204.777 194.008 203.796C195.202 202.831 196.444 201.928 197.73 201.09C198.331 200.704 198.91 200.286 199.466 199.838C199.715 199.616 199.98 199.413 200.26 199.23C200.531 198.956 200.828 198.706 201.144 198.484C202.904 197.159 206.203 196.177 208.382 195.758C210.278 195.306 212.224 195.095 214.172 195.129C216.116 195.222 218.039 195.57 219.891 196.164C223.604 197.392 226.959 199.513 229.659 202.339C231.499 204.26 233.051 206.435 234.27 208.799C235.61 211.799 236.56 214.959 237.096 218.202L237.12 218.196ZM255.776 197.113C255.456 196.422 255.086 195.755 254.668 195.119C253.749 193.56 252.695 192.085 251.52 190.709C250.898 189.961 250.264 189.166 249.558 188.414C248.851 187.662 248.052 186.974 247.306 186.232C241.16 180.303 232.824 176.433 228.928 174.815C222.565 172.125 215.796 170.517 208.901 170.06C205.37 169.837 201.826 170.121 198.377 170.904C195.013 171.91 191.748 173.218 188.621 174.814C185.483 176.273 182.456 177.96 179.564 179.859C178.131 180.833 176.751 181.883 175.432 183.005C174.029 184.085 173.059 185.784 171.934 187.121C170.992 188.247 164.525 194.054 164.525 194.054C161.806 196.233 159.334 198.703 157.153 201.42C153.405 206.433 151.006 212.322 150.185 218.525C149.357 224.944 150.08 231.468 152.295 237.549C153.568 240.567 155.182 243.43 157.108 246.08C159.415 249.388 162.182 252.394 163.435 254.028C164.3 255.091 165.014 255.941 165.632 256.706C166.25 257.471 166.877 258.068 167.468 258.756C169.026 260.382 170.723 261.868 172.539 263.2C174.837 264.888 176.245 265.787 177.581 266.594C178.917 267.402 180.115 268.192 182.142 269.515C182.151 269.554 183.45 270.071 184.922 270.687C186.395 271.304 188.026 271.99 188.85 272.439C191.178 273.871 199.58 277.017 207.096 278.083C210.902 278.871 214.781 279.255 218.668 279.231C222.038 279.244 225.39 278.73 228.602 277.706C230.442 277.145 232.18 276.292 233.75 275.179C234.551 274.607 235.304 273.971 236.002 273.278C236.68 272.64 237.45 271.971 238.177 271.296C243.867 265.852 249.206 259.478 252.611 253.123C255.317 248.107 257.473 242.815 259.041 237.337C261.093 230.623 261.965 223.606 261.617 216.596C261.45 213.076 260.841 209.592 259.805 206.224C259.248 204.371 257.3 198.972 255.776 197.113ZM260.395 219.179C260.485 220.754 260.38 222.551 260.419 224.57C260.333 225.589 260.258 226.655 260.175 227.79C260.056 228.641 259.858 229.48 259.583 230.295C259.175 231.633 254.302 244.746 252.294 248.102C249.222 253.253 246.233 259.125 240.96 265.225C240.736 265.57 239.656 266.713 237.969 268.444C237.152 269.332 236.084 270.215 234.958 271.269C234.389 271.773 233.804 272.38 233.188 272.862C232.574 273.356 231.917 273.793 231.224 274.169C225.482 277.506 216.468 278.017 209.705 277.102L206.845 276.53C205.609 276.206 204.136 275.897 202.704 275.446C200.413 274.8 198.159 274.03 195.953 273.139C191.102 271.125 186.438 268.69 182.014 265.861C178.675 263.759 176.345 262.112 174.435 260.753C170.674 258.005 168.438 256.609 164.88 253.088C162.475 250.615 160.294 247.935 158.363 245.077C156.443 242.169 154.852 239.057 153.619 235.798C151.226 229.207 151.057 222.014 153.136 215.316C154.754 209.934 158.118 204.404 162.26 199.651C164.336 197.26 166.583 195.061 168.779 192.958C169.854 191.866 170.974 190.888 172.035 189.874C173.125 188.95 174.125 187.926 175.022 186.814C175.869 185.737 176.854 184.777 177.952 183.959C178.441 183.574 178.93 183.189 179.444 182.766C179.937 182.223 180.464 181.713 181.021 181.236C184.216 178.517 190.18 175.925 194.059 174.312C194.907 173.932 195.777 173.605 196.662 173.307C197.547 173.01 198.415 172.641 199.317 172.415C201.121 171.959 202.961 171.658 204.817 171.515C208.539 171.213 212.284 171.379 215.964 172.009C223.33 173.345 230.398 175.984 236.836 179.803C241.193 182.421 245.186 185.601 248.714 189.259C251.807 192.659 254.503 196.401 256.749 200.411C257.442 201.989 257.989 203.627 258.384 205.304C258.574 206.09 258.617 206.853 258.851 207.852C259.085 208.852 259.442 210.088 259.626 211.914C259.767 212.803 259.926 213.837 260.113 215.023C260.3 216.208 260.305 217.637 260.411 219.209L260.395 219.179ZM252.295 208.001C251.426 204.677 249.972 201.535 248 198.721C247.634 198.136 247.235 197.518 246.822 196.878C246.351 196.234 245.849 195.615 245.315 195.022C244.205 193.701 242.986 192.474 241.672 191.355C236.27 186.609 229.046 183.893 225.669 182.873C220.175 181.061 214.395 180.268 208.615 180.533C207.158 180.646 205.708 180.844 204.273 181.127L202.115 181.6L200.017 182.316C197.28 183.353 194.721 184.505 192.089 185.699C189.488 186.904 186.992 188.324 184.627 189.943C182.257 191.565 180.372 193.884 178.272 195.798C176.172 197.712 173.858 199.362 171.534 201.072C169.099 202.733 166.865 204.669 164.875 206.843C161.513 210.977 159.501 216.042 159.11 221.354C158.741 226.827 159.809 232.302 162.207 237.236C163.484 239.649 165.01 241.922 166.762 244.016C167.286 244.671 167.787 245.365 168.312 245.986L169.912 247.711C170.939 248.793 171.701 249.839 172.3 250.459C173.821 252.17 174.656 253.315 175.702 254.367C177.053 255.677 178.493 256.893 180.012 258.005C181.995 259.321 183.176 260.075 184.293 260.736C185.411 261.397 186.469 261.988 188.199 263.116C188.21 263.163 189.33 263.524 190.578 263.971C191.712 264.369 192.822 264.834 193.903 265.361C194.409 265.629 195.218 265.982 196.261 266.403L197.963 267.072C198.587 267.279 199.262 267.456 199.963 267.669C201.453 268.137 202.97 268.514 204.506 268.797C206.087 269.13 207.687 269.368 209.297 269.508C210.43 269.718 211.575 269.854 212.725 269.917L215.565 270.061C216.626 270.045 217.796 269.961 219.044 269.892C220.293 269.823 221.606 269.471 223.05 269.246C223.716 269.043 224.417 268.774 225.119 268.546L226.185 268.171L227.189 267.645C228.521 266.89 229.983 266.295 231.316 265.407C232.649 264.518 234.086 263.68 235.367 262.613C240.569 258.593 244.829 253.486 247.848 247.648C248.478 246.265 249.07 244.941 249.624 243.676C250.038 242.361 250.447 241.131 250.831 239.965C251.543 237.647 252.023 235.643 252.448 234.135C253.784 228.431 254.242 222.557 253.807 216.716C253.681 214.651 253.393 213.257 253.26 211.984C253.126 210.711 252.705 209.557 252.311 208.031L252.295 208.001ZM252.511 218.893C252.688 222.269 252.463 225.654 251.84 228.976C251.301 230.77 247.27 241.551 246.761 242.681C246.252 243.81 245.377 245.419 244.874 246.606C244.37 247.792 243.665 248.936 243.014 250.166C241.523 252.794 239.714 255.229 237.629 257.416C237.393 257.733 237.135 258.031 236.855 258.31C236.378 258.709 235.767 259.248 235.023 259.885C233.128 261.498 231.087 262.93 228.926 264.164C227.617 264.806 226.326 265.626 224.932 266.296L222.844 267.126C222.105 267.367 221.353 267.566 220.591 267.721C219.06 268.072 217.503 268.297 215.935 268.391C214.392 268.416 212.872 268.393 211.448 268.355L209.052 267.946C208.541 267.862 207.97 267.775 207.381 267.644L205.605 267.184C203.668 266.694 201.763 266.083 199.902 265.355C195.857 263.752 191.965 261.786 188.276 259.48C185.445 257.829 183.573 256.386 181.909 255.392C180.245 254.398 179.093 253.421 177.769 252.594C176.354 251.592 175.004 250.503 173.725 249.332C169.527 245.369 166.069 240.69 163.513 235.514C160.956 230.269 160.391 224.274 161.924 218.643C163.431 213.793 166.158 209.411 169.844 205.914C173.632 202.277 177.818 199.284 180.876 195.758C181.791 194.763 182.432 193.901 183.163 193.142C183.535 192.763 183.926 192.405 184.335 192.068C184.74 191.679 185.174 191.274 185.705 190.854C188.415 188.676 193.358 186.506 196.576 185.12C199.366 183.752 202.317 182.739 205.359 182.103C208.414 181.609 211.517 181.488 214.601 181.744C220.829 182.196 226.902 183.896 232.457 186.743C236.254 188.634 239.722 191.121 242.731 194.109C245.272 196.72 247.486 199.63 249.323 202.775C250.061 204.23 250.591 205.781 250.897 207.383C251.051 208.02 251.054 208.684 251.207 209.521C251.359 210.357 251.661 211.398 251.834 212.903C251.931 213.645 252.065 214.51 252.207 215.507C252.349 216.504 252.417 217.61 252.526 218.922L252.511 218.893ZM266.993 190.438C266.351 189.47 265.074 188.116 264.395 187.1C263.716 186.083 262.846 185.171 262.028 184.197C261.627 183.712 261.237 183.199 260.84 182.73L259.524 181.385C258.623 180.481 257.763 179.542 256.845 178.708C255.051 177.074 253.164 175.546 251.192 174.131C250.265 173.465 249.372 172.8 248.474 172.219L245.888 170.683C244.522 169.862 243.113 169.115 241.667 168.446C234.277 164.787 226.26 162.561 218.04 161.885C215.983 161.776 213.933 161.524 211.884 161.621L208.78 161.657C207.754 161.681 206.73 161.821 205.7 161.896C201.571 162.21 197.488 162.965 193.52 164.147C189.551 165.261 185.698 166.751 182.013 168.597C178.398 170.531 174.902 172.683 171.547 175.04L161.414 181.86C157.865 184.023 154.529 186.516 151.448 189.304C146.293 194.629 142.591 201.187 140.696 208.349C138.6 215.742 138.665 223.677 140.032 231.071C140.916 234.865 142.234 238.545 143.961 242.037C145.716 245.687 147.709 249.219 149.925 252.609C150.769 254.068 151.457 255.157 152.137 256.107C152.816 257.057 153.351 257.959 154.016 258.779C155.649 260.919 157.48 262.901 159.486 264.698C161.28 266.323 163.157 267.856 165.109 269.29L170.326 273.133L171.285 273.657C171.865 273.958 172.661 274.355 173.513 274.781C175.183 275.665 177.143 276.538 178.07 277.17C180.794 279.005 190.637 283.183 199.5 284.97C203.98 286.142 208.546 286.955 213.156 287.401C217.118 287.826 221.109 287.897 225.084 287.615C227.324 287.447 229.55 287.136 231.75 286.682C234.106 286.128 236.32 285.087 238.251 283.628C240.189 282.199 241.98 280.581 243.598 278.798C245.224 277.058 246.76 275.237 248.202 273.342C249.641 271.48 251.007 269.595 252.298 267.743C253.589 265.892 254.722 264.005 255.824 262.166L261.605 252.117C263.393 249.189 264.923 246.707 266.079 244.813C268.388 241.171 270.438 237.37 272.213 233.44C273.876 229.729 275.035 225.812 275.66 221.794C276.272 217.592 276.05 213.311 275.006 209.196C273.497 202.526 270.788 196.185 267.012 190.483L266.993 190.438ZM274.225 213.086C274.361 214.014 274.429 214.95 274.43 215.888C274.49 217.137 274.473 218.388 274.38 219.635C274.311 220.35 274.298 221.118 274.188 221.935C274.077 222.751 273.914 223.623 273.76 224.533C273.028 228.211 269.584 236.397 268.587 238.16C267.704 239.738 263.871 244.151 261.661 247.056C259.433 249.946 257.433 253.005 255.679 256.205C253.88 259.394 252.06 262.703 249.932 266.154C247.702 269.956 245.135 273.55 242.263 276.893C241.172 278.226 239.951 279.446 238.617 280.537C237.433 281.567 236.147 282.475 234.779 283.246C233.111 284.075 231.319 284.627 229.474 284.88C225.021 285.548 220.519 285.837 216.017 285.744C211.538 285.605 207.077 285.112 202.676 284.268C201.28 283.932 197.775 283.068 194.374 281.879C190.973 280.69 187.657 279.298 186.349 278.708C180.645 276.082 175.215 272.898 170.139 269.203C166.341 266.405 163.735 264.201 161.659 262.367C159.584 260.532 157.972 259.101 156.401 257.494C155.573 256.7 154.787 255.864 154.046 254.988C153.636 254.53 153.228 254.047 152.79 253.546C152.352 253.044 151.976 252.454 151.549 251.858C149.092 248.545 147.021 244.962 145.376 241.179C143.698 237.372 142.454 233.388 141.668 229.303C140.043 221.062 140.987 212.521 144.372 204.831C147.397 198.171 151.941 192.312 157.64 187.722C163.567 183.018 169.736 178.971 174.994 174.978C178.041 172.644 179.639 171.201 183.035 169.414C187.396 167.043 194.832 164.893 199.813 164.12C200.906 163.855 202.019 163.777 203.121 163.585L206.447 163.228C208.658 162.909 210.89 162.984 213.11 162.87C214.231 162.824 215.336 162.955 216.464 162.973C217.592 162.991 218.692 163.032 219.805 163.195C222.025 163.414 224.231 163.757 226.413 164.223C230.785 165.114 235.051 166.465 239.14 168.251C248.806 172.595 257.18 179.369 263.443 187.912C269.285 195.986 271.08 202.537 272.152 204.731C272.919 206.791 273.56 208.897 274.07 211.036C274.093 211.646 274.16 212.336 274.244 213.131L274.225 213.086ZM287.677 201.686C286.962 199.242 286.045 196.86 284.938 194.566C284.337 193.323 283.717 192.034 283.095 190.738C282.343 189.489 281.564 188.231 280.781 186.957C279.316 184.343 277.303 182.045 275.536 179.662C274.632 178.475 273.569 177.452 272.62 176.385C271.67 175.317 270.727 174.24 269.72 173.345C267.677 171.544 265.906 169.728 264.137 168.368C262.368 167.008 260.884 165.829 259.688 164.88C251.864 159.113 243.153 154.655 233.896 151.683C224.599 148.612 214.787 147.405 205.021 148.131C195.215 149.324 185.949 152.749 177.248 157.168C168.539 161.67 160.44 167.264 153.148 173.815C150.063 176.68 147.262 179.837 144.786 183.242C142.155 186.778 139.853 190.548 137.909 194.504C133.886 202.567 131.537 211.359 131.002 220.352C130.996 220.977 131.013 221.804 131.031 222.773C131.046 223.88 131.128 224.985 131.275 226.082C131.585 228.767 132.039 231.433 132.635 234.069C133.814 238.723 135.244 243.309 136.919 247.809C137.777 249.564 138.453 250.98 139.065 252.237C139.366 252.863 139.658 253.449 139.927 254.008C140.195 254.566 140.548 255.096 140.852 255.63C142.402 258.395 144.183 261.024 146.176 263.488C151.237 269.747 152.448 270.518 157.083 275.533L165.322 281.854C166.417 282.808 167.567 283.699 168.764 284.522C170.345 285.552 172.207 286.848 174.359 288.106C179.01 290.805 183.889 293.09 188.939 294.937C190.702 295.711 192.507 296.385 194.346 296.954C195.691 297.386 197.211 297.924 198.926 298.407L204.624 299.804C206.669 300.241 208.915 300.545 211.234 300.981C213.554 301.417 216.049 301.478 218.607 301.765L222.514 301.884L224.511 301.949C224.842 301.944 225.175 301.979 225.576 301.949L226.603 301.792L230.673 301.105C232.018 300.78 233.372 300.394 234.734 300.039C240.249 298.428 245.293 295.509 249.436 291.53C253.284 287.681 256.421 283.183 258.702 278.243C260.924 273.671 262.677 269.363 264.426 265.721C265.838 262.675 267.444 259.722 269.234 256.881C274.565 248.272 281.992 240.827 286.455 233.001C287.824 230.65 288.893 228.136 289.637 225.52C289.802 224.997 289.951 224.479 290.091 223.955C290.23 223.43 290.271 222.88 290.364 222.333C290.57 221.136 290.683 219.924 290.701 218.709C290.805 216.471 290.691 214.229 290.361 212.014C290.013 210.061 288.064 202.699 287.677 201.686ZM289.184 216.465C288.965 218.655 289.346 221.224 287.901 226.115C286.764 229.365 285.234 232.464 283.344 235.343C280.941 239.168 274.452 247.085 272.704 249.247C271.087 251.301 266.818 256.252 264.479 259.962C262.179 263.642 260.174 267.497 258.483 271.493C256.724 275.646 254.702 279.683 252.429 283.579C251.156 285.661 249.676 287.611 248.012 289.397C246.223 291.351 244.157 293.034 241.881 294.391C240.182 295.494 238.356 296.389 236.442 297.055C234.653 297.728 232.82 298.278 230.956 298.7C229.928 298.991 228.789 299.1 227.632 299.305C227.066 299.442 226.473 299.503 225.874 299.606L225.45 299.709C225.345 299.733 225.238 299.742 225.132 299.736L224.218 299.708C221.696 299.604 219.052 299.687 216.347 299.377L212.244 299.065L208.144 298.461C205.426 298.092 202.728 297.586 200.061 296.943C197.417 296.335 194.971 295.481 192.61 294.838C191.83 294.503 190.451 293.931 188.775 293.231C187.95 292.882 187.009 292.536 186.086 292.094C185.164 291.652 184.193 291.147 183.245 290.67L180.401 289.238C179.51 288.722 178.671 288.21 177.884 287.743C176.333 286.805 175.032 286.072 174.336 285.567C168.118 281.445 162.379 276.642 157.227 271.249C156.244 270.248 155.341 269.302 154.488 268.428L152.252 265.826C151.55 265.023 150.88 264.287 150.26 263.58L148.612 261.485L145.763 257.967C144.931 256.837 144.155 255.795 143.378 254.719C141.624 252.323 140.016 249.825 138.562 247.236C134.751 238.546 132.363 228.513 132.9 218.669C133.533 208.725 136.79 199.124 142.341 190.844C144.66 187.333 147.272 184.024 150.15 180.953C153.228 177.712 156.508 174.668 159.969 171.839C166.667 166.453 173.865 161.719 181.464 157.702C185.46 155.579 187.533 154.237 191.69 152.399C194.936 151.118 198.31 150.187 201.753 149.621C202.669 149.449 203.612 149.32 204.521 149.225C205.43 149.129 206.366 149.044 207.263 149.001C209.043 148.861 210.737 149.05 212.265 149.037C214.906 149.091 217.541 149.3 220.157 149.663C221.471 149.795 222.774 150.013 224.06 150.314L227.939 151.038C230.47 151.797 233.045 152.396 235.543 153.296C238.042 154.197 240.541 155.03 242.911 156.227C252.59 160.594 261.419 166.638 268.99 174.078C273.986 179.268 278.331 185.047 281.93 191.286C287.278 200.486 289.379 214.488 289.184 216.465ZM299.645 210.14C298.808 206.683 298.298 204.886 297.886 203.389C296.251 197.502 293.79 191.877 290.577 186.681C287.144 181.077 283.093 175.877 278.5 171.177C275.065 167.683 271.4 164.422 267.53 161.417C259.002 154.665 249.505 149.233 239.359 145.304C229.222 141.422 218.356 139.063 207.341 139.427C196.28 140.01 185.664 143.255 175.678 147.627C165.618 152.052 156.266 157.935 147.922 165.085C140.932 170.936 134.863 178.934 130.199 187.756C127.908 192.236 126.077 196.937 124.734 201.786C124.011 204.198 123.563 206.677 123.061 209.143C122.756 211.629 122.349 214.106 122.259 216.589C122.185 217.489 122.159 218.392 122.182 219.294C122.237 220.379 122.306 221.626 122.376 222.981C122.65 225.692 123.079 228.84 123.715 231.946C124.756 237.216 126.189 242.4 128.003 247.456C128.425 248.477 128.767 249.409 129.13 250.252C129.492 251.096 129.92 251.832 130.276 252.544C131.082 253.879 131.791 255.022 132.498 256.223C134.369 259.236 136.416 262.137 138.63 264.908C144.337 271.842 145.548 272.855 150.613 278.547C150.629 278.61 152.295 280.027 154.192 281.672C156.088 283.317 158.343 285.066 159.353 286.144C159.726 286.519 160.219 287.007 160.843 287.554C161.466 288.102 162.211 288.67 163.04 289.342C164.94 290.929 166.922 292.414 168.978 293.792C170.126 294.579 171.328 295.385 172.569 296.249C173.811 297.113 175.165 297.791 176.462 298.574C177.758 299.358 179.096 300.174 180.504 300.831C181.911 301.488 183.258 302.168 184.599 302.824C185.079 303.057 185.794 303.5 186.803 303.954C187.812 304.408 189.058 304.913 190.518 305.549L192.859 306.554C193.69 306.893 194.61 307.153 195.581 307.483L198.563 308.491C199.638 308.877 200.736 309.197 201.85 309.449C206.947 310.838 212.161 311.763 217.425 312.214C218.868 312.33 220.325 312.435 221.807 312.541C223.29 312.648 224.798 312.516 226.304 312.517C229.433 312.601 232.56 312.293 235.612 311.602C241.864 310.304 247.637 306.852 252.373 302.695C256.862 298.636 260.776 293.984 264.005 288.867C266.899 284.561 269.562 280.105 271.983 275.517C273.061 273.509 273.877 271.549 274.661 269.804C275.445 268.059 276.296 266.589 277.026 265.306C279.768 260.362 282.972 255.688 286.595 251.346C290.129 247.072 293.799 243.048 296.361 238.644C297.906 235.998 299.025 233.126 299.676 230.132C299.818 229.516 299.933 228.923 300.073 228.332C300.212 227.741 300.225 227.139 300.314 226.51C300.468 225.168 300.549 223.818 300.558 222.467C300.589 220.946 300.845 219.113 300.761 217.703C300.588 215.148 300.213 212.611 299.64 210.116L299.645 210.14ZM299.122 220.661C299.176 224.131 298.793 227.593 297.981 230.967C296.974 234.713 295.291 238.243 293.013 241.384C290.219 245.554 282.344 254.446 281.148 256.108C279.953 257.77 273.337 266.399 271.774 268.948C269.201 273.205 266.477 276.942 264.3 281.253C263.244 283.421 262.185 285.649 260.898 287.823C260.293 288.945 259.608 290.023 258.849 291.047C258.095 292.061 257.392 293.213 256.541 294.234C253.146 298.897 248.86 302.841 243.929 305.837C242.017 307.068 239.936 308.015 237.751 308.647C237.303 308.756 236.868 308.952 236.394 309.092L234.867 309.42C234.356 309.544 233.83 309.672 233.295 309.801L231.579 310C230.978 310.063 230.387 310.164 229.743 310.187C229.1 310.21 228.468 310.213 227.803 310.216L223.706 310.31C222.262 310.325 220.818 310.261 219.381 310.119C217.913 310.033 216.424 309.936 214.893 309.833L210.338 309.207L208.049 308.929C207.277 308.8 206.517 308.618 205.763 308.46L201.217 307.49C199.729 307.119 198.275 306.614 196.84 306.188C194.072 305.343 191.35 304.35 188.688 303.215L186.928 302.443C186.223 302.073 185.4 301.632 184.515 301.14C182.478 300.127 180.494 299.012 178.571 297.798C175.297 295.797 172.128 293.631 169.076 291.307C162.465 286.116 156.308 280.374 150.67 274.142C146.402 269.438 143.537 265.89 141.101 262.979C138.806 260.001 136.847 257.822 135.104 255.4L132.307 251.687C131.841 251.034 131.458 250.346 130.975 249.623C130.492 248.9 130.181 248.027 129.748 247.167C127.652 242.088 126.137 236.789 125.231 231.371C124.18 225.929 123.816 220.376 124.15 214.842C124.966 203.692 128.731 192.956 135.06 183.734C140.007 176.291 147.324 169.08 155.424 163.002C163.204 157.308 171.549 152.428 180.327 148.439C184.94 146.316 187.367 144.963 192.142 143.233C195.865 142.041 199.704 141.248 203.595 140.867C207.512 140.515 211.452 140.521 215.368 140.885C227.208 142.025 238.717 145.432 249.267 150.921C259.872 156.331 269.505 163.463 277.773 172.026C280.465 174.865 282.979 177.866 285.301 181.014C287.756 184.37 289.958 187.903 291.889 191.585C293.654 195.305 295.142 199.151 296.34 203.09C297.591 206.845 299.366 213.9 299.117 220.638L299.122 220.661ZM308.384 212.647C308.305 211.976 308.319 212.106 308.384 212.647ZM307.751 207.353C305.933 200.652 303.378 194.173 300.134 188.033C299.256 186.367 298.447 184.675 297.514 183.021C296.581 181.368 295.464 179.85 294.468 178.279C293.946 177.499 293.448 176.713 292.952 175.935C292.455 175.157 291.842 174.482 291.301 173.757C290.181 172.365 289.085 170.967 288.02 169.628C287.007 168.337 285.915 167.11 284.75 165.954C283.643 164.817 282.621 163.725 281.652 162.713C280.771 161.77 279.829 160.887 278.831 160.069C277.934 159.289 277.135 158.567 276.418 157.943C258.026 141.831 233.818 132.974 209.389 132.037C207.869 131.92 206.343 131.898 204.82 131.971L200.223 132.028C197.155 132.015 194.089 132.202 191.045 132.588C184.937 133.32 178.912 134.635 173.053 136.512C167.176 138.357 161.477 140.725 156.024 143.589C154.641 144.273 153.321 145.075 151.973 145.834C151.298 146.205 150.655 146.644 150.004 147.051C149.735 147.349 149.218 147.241 148.875 147.44L147.882 148.047C146.579 148.886 145.324 149.789 144.025 150.644C142.726 151.499 141.562 152.538 140.368 153.517C132.049 160.588 125.4 169.412 120.899 179.355C116.141 189.572 113.94 200.932 113.315 211.961C113.188 213.53 113.304 216.072 113.385 219.121C113.534 220.632 113.682 222.276 113.834 224.002C113.986 225.728 114.344 227.446 114.579 229.21C115.483 235.163 116.698 241.065 118.22 246.89C119.251 250.417 120.526 253.868 122.036 257.218C122.679 258.786 123.432 260.307 124.287 261.77C124.754 262.597 125.271 263.495 125.828 264.491C126.419 265.606 127.075 266.686 127.793 267.724C129.243 269.793 130.36 271.451 131.358 272.856C132.356 274.261 133.329 275.323 134.17 276.425C135.905 278.574 137.435 280.665 140.291 283.866C140.303 283.913 140.77 284.332 141.454 285.023C142.137 285.714 143.056 286.656 144.124 287.561C146.24 289.427 148.628 291.552 149.764 292.774C150.613 293.632 152.075 294.858 153.856 296.406C154.773 297.166 155.783 298.002 156.849 298.9C157.915 299.798 159.198 300.593 160.462 301.518C161.727 302.442 163.006 303.396 164.42 304.318L168.764 307C171.64 308.907 174.838 310.394 177.796 311.989C183.896 315.222 190.272 317.906 196.85 320.008L200.782 321.192L202.833 321.793L204.996 322.268C208.021 322.999 211.085 323.559 214.174 323.945C215.777 324.139 217.396 324.396 219.056 324.551L224.099 324.752C224.987 324.778 225.748 324.86 226.731 324.83L229.311 324.487C231.031 324.27 232.767 324.05 234.502 323.688C241.553 322.564 248.376 320.311 254.709 317.015C260.8 313.766 266.005 309.08 269.871 303.363C273.555 297.956 275.739 292.404 277.549 287.608C279.359 282.812 280.799 278.688 282.048 275.633C284.463 269.692 286.879 263.652 291.078 259.101C295.112 254.415 299.814 250.498 303.272 245.977L304.249 244.717L305.078 243.469C305.582 242.739 306.043 241.98 306.459 241.197C306.849 240.437 307.198 239.745 307.546 239.087C307.894 238.429 308.049 237.726 308.324 237.078C309.321 234.344 309.914 231.48 310.086 228.576C310.208 226.883 310.113 221.817 310.078 220.262C309.967 218.634 308.553 210.494 307.751 207.353ZM309.089 226.248C308.999 227.773 308.81 229.291 308.525 230.792C308.38 231.826 308.151 232.846 307.841 233.843C307.504 235.198 307.06 236.524 306.512 237.808C304.733 241.774 302.308 245.419 299.336 248.593L292.728 255.674C290.002 258.707 287.437 261.882 285.044 265.185C284.219 266.45 279.711 275.741 277.49 280.695C275.269 285.649 273.37 290.558 271.003 295.355C268.673 300.405 265.451 304.994 261.491 308.902C256.738 313.34 251.064 316.676 244.873 318.673C244.552 318.826 243.714 319.112 242.452 319.534C241.189 319.956 239.444 320.312 237.376 320.846L233.991 321.475C232.804 321.762 231.498 321.937 230.122 322.096C229.444 322.185 228.753 322.286 228.032 322.369L226.954 322.522C226.642 322.579 226.324 322.595 226.008 322.568L221.397 322.396L219.005 322.31L216.555 322.022L211.523 321.419C209.844 321.152 208.152 320.763 206.447 320.461C204.721 320.174 203.011 319.8 201.324 319.34L196.288 317.965C194.596 317.543 193.015 316.853 191.402 316.312C189.79 315.771 188.216 315.221 186.727 314.567L182.355 312.632C178.482 310.743 174.717 308.643 171.077 306.34C168.84 304.836 166.579 303.371 164.706 302.062L160.567 298.856C153.176 292.97 146.393 286.361 140.317 279.128C138.07 276.345 136.264 273.905 134.566 271.805C133.052 269.577 131.713 267.656 130.506 265.936C126.033 258.878 123.236 254.956 120.022 246.703C118.093 240.933 117.043 234.743 116.15 228.58C115.217 222.405 114.913 216.151 115.241 209.915C115.732 197.36 119.404 185.134 125.912 174.382C131.076 165.772 139.308 157.525 148.744 151.264C158.011 144.679 168.641 140.425 177.997 137.577C183.465 135.929 186.379 134.865 191.988 133.765C195.636 133.089 200.376 133.106 205.09 133.087C206.265 133.093 207.451 133.006 208.619 133.122C209.788 133.238 210.94 133.325 212.023 133.429L218.249 133.95C231.544 135.454 244.46 139.335 256.379 145.407C268.277 151.522 278.789 160.015 287.265 170.36C288.497 172.007 289.847 173.701 291.186 175.448C292.524 177.194 293.625 179.198 294.882 181.122C295.487 182.107 296.127 183.066 296.71 184.064C297.293 185.062 297.771 186.144 298.299 187.189L299.895 190.345C300.463 191.372 300.953 192.441 301.36 193.541C305.254 202.128 306.7 210.128 308.429 217.609C308.438 217.441 309.421 223.631 309.089 226.248ZM312.355 182.579C308.516 175.365 303.859 168.615 298.478 162.463C294.435 157.887 290.062 153.612 285.393 149.673C275.133 140.843 263.558 133.664 251.085 128.393C238.595 123 225.212 119.965 211.614 119.44C204.803 119.304 197.994 119.798 191.273 120.915C184.55 121.984 177.919 123.568 171.438 125.652C158.498 129.817 146.029 135.963 135.239 144.572C125.974 152.303 118.44 161.893 113.126 172.722C111.696 175.48 110.609 178.412 109.439 181.315C108.495 184.288 107.417 187.227 106.758 190.281C105.915 193.295 105.429 196.374 104.87 199.428C104.6 200.957 104.484 202.507 104.321 204.035C104.159 205.563 103.906 207.096 103.863 208.637C103.809 209.481 103.783 210.644 103.759 211.988C103.732 212.668 103.723 213.386 103.709 214.154C103.695 214.923 103.788 215.715 103.811 216.566C103.918 218.245 104 220.063 104.142 221.958C104.285 223.853 104.598 225.798 104.83 227.754C105.701 234.37 106.975 240.927 108.645 247.388C109.349 250.02 109.919 252.135 110.594 253.959C111.269 255.784 111.814 257.381 112.471 258.994C114.174 263.09 116.242 267.026 118.648 270.754C120.788 274.125 123.108 277.381 125.595 280.506C127.507 282.903 129.289 285.141 132.361 288.788C132.426 288.848 134.381 290.702 136.627 292.861C137.792 293.926 139.014 295.053 140.132 296.062C141.251 297.072 142.258 297.968 142.893 298.629C146.583 302.166 150.534 305.421 154.713 308.365C160.787 312.757 167.194 316.669 173.876 320.066C180.626 323.674 187.673 326.697 194.94 329.102C201.189 331.176 207.601 332.719 214.11 333.716L216.802 334.111L219.529 334.374C221.374 334.601 223.253 334.662 225.129 334.748C229.023 334.957 232.928 334.799 236.792 334.277C244.363 332.443 251.986 329.724 258.693 325.597C265.142 321.56 270.713 316.268 275.074 310.037C279.166 304.148 281.837 298.096 284.134 292.874C286.432 287.652 288.132 283.124 289.633 279.767C291.133 276.41 292.515 273.248 294.096 270.087C294.844 268.467 295.756 267.007 296.627 265.516C297.568 264.067 298.582 262.667 299.664 261.321C303.915 255.917 308.81 251.247 312.682 246.343C315.076 243.42 317.124 240.231 318.787 236.839C319.453 235.474 320.018 234.061 320.476 232.613C320.715 231.881 320.947 231.119 321.194 230.319C321.442 229.518 321.531 228.615 321.708 227.699C322.418 223.926 322.843 218.086 322.225 214.335C321.933 212.543 320.885 206.909 320.145 203.786C318.498 196.404 315.878 189.273 312.355 182.579ZM320.988 225.104C320.889 225.86 320.653 226.607 320.473 227.408C320.292 228.208 320.111 229.076 319.825 230.06C319.539 231.044 319.131 232.107 318.703 233.367C318.121 234.572 317.618 236.033 316.729 237.587C315.127 240.802 312.457 244.659 308.329 249.434C306.298 251.839 303.873 254.472 301.277 257.604C298.681 260.735 294.128 267.16 293.293 268.452C292.457 269.744 287.167 279.998 284.517 285.413C281.866 290.829 279.55 296.18 276.744 301.433C273.869 306.949 270.227 312.031 265.926 316.527C260.833 321.673 254.722 325.702 247.984 328.356C247.628 328.534 246.726 328.902 245.353 329.451C243.979 330 242.074 330.553 239.821 331.215L236.098 332.166L235.626 332.28C235.515 332.32 235.396 332.334 235.279 332.323L234.215 332.398L231.999 332.527C228.706 332.66 225.409 332.625 222.12 332.424C207.126 331.271 192.467 327.411 178.854 321.031C176.734 319.939 171.392 317.233 166.375 313.974C162.312 311.385 158.383 308.592 154.603 305.606C146.365 299.121 138.832 291.789 132.127 283.731C128.214 279.067 124.604 274.158 121.319 269.034C118.77 265.144 116.976 261.994 115.231 258.741C114.445 257.077 113.525 255.445 112.769 253.558C112.387 252.635 111.947 251.677 111.561 250.632C111.174 249.586 110.828 248.497 110.434 247.32C108.46 240.73 107.102 233.971 106.377 227.13L105.845 221.978C105.725 220.244 105.699 218.521 105.612 216.787L105.525 214.197L105.596 211.602C105.676 209.869 105.648 208.138 105.802 206.404C106.888 192.603 110.976 178.864 118.625 167.249C121.867 162.339 125.618 157.784 129.816 153.661C134.359 149.387 139.272 145.525 144.499 142.122C154.62 135.641 165.549 130.52 177.006 126.89C183.021 124.918 186.207 123.639 192.383 122.201C197.16 121.269 202.009 120.754 206.875 120.663C211.768 120.563 216.661 120.86 221.506 121.552C250.785 125.605 278.283 140.9 297.748 163.23C300.913 166.948 303.84 170.861 306.511 174.946C309.293 179.329 311.749 183.909 313.859 188.652C315.901 193.321 317.573 198.144 318.858 203.075C320.116 207.652 320.465 211.775 321.116 215.834C321.364 218.916 321.32 222.015 320.985 225.089L320.988 225.104ZM329.742 192.514C329.224 190.86 325.759 182.668 325.352 181.743C324.474 179.835 323.707 177.801 322.672 175.864C321.637 173.928 320.476 171.989 319.365 170.012C318.253 168.018 317.018 166.095 315.666 164.255L313.723 161.458C313.098 160.513 312.42 159.606 311.692 158.739C308.791 155.284 306.086 151.781 303.057 148.963C301.589 147.506 300.248 146.026 298.834 144.755C297.419 143.485 296.025 142.334 294.749 141.221C292.595 139.318 290.336 137.539 287.981 135.891C286.473 134.817 285.042 133.65 283.508 132.641L278.802 129.706C275.741 127.62 272.532 125.777 269.399 123.667C267.84 122.631 266.2 121.721 264.496 120.946C262.813 120.114 261.094 119.375 259.375 118.668C255.84 117.404 252.252 116.335 248.667 115.382L243.217 114.323C241.395 113.935 239.553 113.648 237.699 113.464C233.988 113.124 230.318 112.507 226.627 112.42C219.243 111.798 211.821 111.796 204.436 112.413C189.62 113.522 175.002 116.503 160.934 121.285C146.871 126.138 134.055 134.597 122.808 144.863C121.645 145.902 114.322 153.812 113.377 155.131C112.431 156.449 111.38 157.71 110.553 159.141C106.867 164.72 103.88 170.73 101.662 177.036C99.3814 183.439 97.823 190.076 97.0152 196.823L96.4942 201.889C96.3165 203.595 96.3511 205.25 96.2694 206.975C96.0554 210.353 96.2417 213.734 96.3694 217.079C96.3314 218.985 96.8323 222.015 97.2362 225.676C97.4302 227.509 97.857 229.443 98.2104 231.486C98.5637 233.529 99.0049 235.626 99.4088 237.741C99.8126 239.855 100.499 241.934 101.041 243.998C101.582 246.063 102.019 248.036 102.721 249.837C103.423 251.638 103.93 253.353 104.574 254.81C105.219 256.267 105.67 257.58 106.162 258.584C106.782 259.939 107.336 261.16 107.843 262.293C108.35 263.426 108.924 264.385 109.409 265.323C110.331 267.238 111.339 268.79 112.258 270.455C114.743 274.613 117.503 278.601 120.517 282.392C124.304 287.205 126.77 289.826 129.033 292.297C130.167 293.544 131.283 294.713 132.55 296.061C133.817 297.409 135.231 298.921 137.026 300.798C137.026 300.798 137.63 301.334 138.483 302.108L141.851 305.052C144.424 307.289 147.349 309.816 148.876 311.134C151.019 313.11 155.863 317.135 161.998 321.57C168.645 326.372 175.585 330.754 182.778 334.692C190.028 338.905 197.658 342.428 205.567 345.215C211.643 347.244 218.873 349.294 226.803 348.771C230.714 348.323 234.803 348.264 238.8 347.138C240.835 346.745 242.849 346.091 244.891 345.555L247.945 344.69C248.967 344.443 249.934 343.968 250.943 343.598C259.13 340.78 266.627 336.26 272.941 330.338C278.823 324.551 283.663 317.795 287.247 310.366C290.66 303.393 293.204 296.715 295.555 290.956C297.906 285.198 299.973 280.331 301.793 276.747C302.632 275.007 303.57 273.316 304.604 271.684C305.708 270.094 306.794 268.492 308.035 266.986C310.413 263.915 312.995 261.036 315.453 258.129C320.427 252.342 324.962 246.429 328.069 240.321C329.947 236.653 331.379 232.774 332.337 228.768C333.146 225.39 333.593 221.937 333.671 218.465C333.738 214.338 333.589 210.211 333.223 206.1C332.409 201.487 331.255 196.941 329.771 192.499L329.742 192.514ZM332.373 221.25C332.233 222.356 332.115 223.624 331.918 225.077C331.721 226.53 331.233 228.162 330.807 230.111C329.315 235.226 327.14 240.116 324.34 244.65C322.552 247.578 320.021 250.495 317.252 253.943C314.484 257.391 308.699 264.089 307.704 265.17C306.709 266.251 303.405 271.201 301.554 274.144C299.835 277.113 298.2 280.054 296.774 283.069C293.906 289.061 291.557 295.101 288.95 301.213C286.344 307.324 283.458 313.487 279.383 319.58C275.003 326.25 269.238 331.9 262.48 336.148C261.842 336.743 258.788 338.43 254.087 340.6C247.938 343.071 241.574 344.966 235.075 346.26C233.17 346.572 231.18 346.671 229.154 346.863L226.107 347.168C225.104 347.22 224.093 347.207 223.067 347.231C218.868 347.028 214.705 346.363 210.652 345.247C202.752 343.049 195.104 340.032 187.832 336.246C185.508 335.07 179.793 331.781 174.291 328.173C168.79 324.566 163.46 320.667 161.375 319.035C155.516 314.533 150.577 310.323 146.363 306.462C142.148 302.601 138.604 299.102 135.566 295.971C129.532 289.681 125.389 284.88 122.218 280.825C119.047 276.769 116.651 273.574 114.31 270.266C111.738 266.494 109.441 262.542 107.435 258.442C105.79 255.062 104.388 251.569 103.239 247.99C102.274 244.348 101.25 240.704 100.426 237.029C99.0135 229.579 97.6343 222.062 97.4584 214.462C97.1597 210.651 97.3945 206.844 97.4685 203.025C97.7265 199.225 98.1999 195.443 98.8864 191.696C100.235 184.182 102.636 176.896 106.021 170.051C108.975 164.306 112.579 158.918 116.764 153.994C117.915 152.768 119.037 151.49 120.309 150.35C121.581 149.21 123.01 148.24 124.246 147.051C125.481 145.862 126.844 144.825 128.157 143.717L130.161 142.093L132.217 140.547C143.296 132.375 155.845 126.559 166.987 122.289C173.489 119.824 176.929 118.218 183.624 116.447C192.33 114.214 206.231 112.744 215.386 112.913C223.484 113 231.56 113.799 239.517 115.302C247.443 117.1 255.299 119.156 262.731 122.421C270.271 125.41 277.324 129.515 284.169 133.862L289.088 137.436L291.542 139.22L293.827 141.161L298.452 145.139C299.956 146.504 301.312 148.014 302.755 149.436C310.494 157.337 316.975 166.378 321.972 176.242C327.115 186.481 331.42 202.536 331.913 206.359C332.309 209.232 332.76 219.002 332.4 221.226L332.373 221.25ZM341.498 183.804C339.067 176.651 333.179 164.713 326.906 157.092C320.805 149.356 313.217 142.495 306.359 136.787C299.5 131.08 293.336 126.452 289.263 123.588L286.799 121.865C285.951 121.322 285.098 120.822 284.246 120.296C282.542 119.237 280.833 118.195 279.047 117.281L273.798 114.336C272.035 113.382 270.319 112.276 268.509 111.4C267.628 110.923 266.707 110.522 265.838 109.993C265.439 109.67 264.984 109.423 264.496 109.262C264.04 109.064 263.575 108.894 263.095 108.769L257.415 106.727C253.566 105.505 249.732 104.313 245.829 103.321C238.039 101.284 230.111 99.8219 222.107 98.9447C214.063 98.0164 205.94 97.9836 197.889 98.8469C195.89 99.0482 193.884 99.4925 191.87 99.8054C189.857 100.118 187.917 100.663 185.973 101.125C182.042 102.077 178.206 103.148 174.391 104.404C166.74 106.809 159.287 109.803 152.1 113.362C144.89 116.93 138.015 121.136 131.556 125.929C129.946 127.151 128.406 128.422 126.826 129.661C125.245 130.901 123.783 132.286 122.287 133.638C119.363 136.408 116.373 138.979 113.507 141.818C108.648 146.463 104.876 152.607 101.442 158.877C97.9638 165.257 95.2008 172 93.2031 178.985C91.18 186.1 89.827 193.388 89.1617 200.754C88.5486 208.092 88.3873 215.46 88.6788 222.817C88.7455 224.88 89.15 228.2 89.6791 232.172C90.0918 234.151 90.4265 236.323 90.9887 238.507C91.5509 240.691 92.23 242.98 93.0943 245.174C94.6772 249.439 96.5194 253.603 98.6107 257.643C99.5973 259.483 100.323 261.278 101.185 262.774C102.047 264.271 102.705 265.616 103.27 266.677C104.791 269.519 106.155 271.716 107.302 273.701C108.448 275.685 109.613 277.299 110.736 279.015C111.859 280.73 113.117 282.388 114.619 284.395C116.12 286.401 117.945 288.645 120.327 291.403C124.674 296.43 127.418 299.167 129.96 301.761C131.237 303.048 132.478 304.286 133.903 305.704C135.328 307.122 136.947 308.651 138.962 310.616C139.064 310.691 141.503 312.72 144.347 315.084L152.178 321.403C156.833 325.273 161.682 328.903 166.705 332.281C174.036 337.271 181.665 341.811 189.548 345.876C190.939 346.637 193.88 348.195 198.088 350.211C203.415 352.726 208.919 354.848 214.557 356.56C218.121 357.673 221.81 358.339 225.54 358.54C229.652 358.662 233.762 358.25 237.769 357.317C246.051 355.428 254.739 352.434 262.645 347.517C270.564 342.549 277.505 336.173 283.124 328.703C288.45 321.594 293.014 313.944 296.739 305.88C300.272 298.305 303.216 291.147 305.822 284.961C306.488 283.419 307.091 281.884 307.781 280.578C308.118 279.906 308.542 279.287 308.902 278.643C309.262 277.999 309.737 277.484 310.149 276.919C311.7 274.982 313.389 273.161 315.205 271.47C321.299 265.703 328.032 260.239 333.19 253.667C338.23 247.496 341.883 240.315 343.905 232.611C345.008 228.294 345.684 223.88 345.923 219.432C346.109 215.682 346.034 211.924 345.696 208.185C345.28 203.82 343.301 189.048 341.526 183.781L341.498 183.804ZM344.09 205.023C344.194 206.861 344.577 209.063 344.657 211.489C344.667 212.7 344.683 214.069 344.696 215.637C344.592 217.234 344.647 219.076 344.385 221.226C343.999 226.986 342.817 232.665 340.873 238.102C339.437 242.073 337.539 245.863 335.218 249.392C332.598 253.353 326.702 259.422 324.499 261.494C322.549 263.338 318.856 266.511 315.949 268.803C313.009 271.078 310.326 273.666 307.947 276.521C306.765 277.997 305.758 279.606 304.947 281.314L302.742 286.164L298.464 295.99C295.573 302.578 292.549 309.373 288.687 316.346C284.581 323.986 279.355 330.97 273.18 337.066C270.74 339.475 268.107 341.681 265.307 343.663C259.433 347.738 253.006 350.953 246.221 353.208C242.055 354.509 237.821 355.576 233.537 356.404C232.444 356.602 231.316 356.651 230.22 356.8C229.124 356.949 227.942 356.878 226.806 356.928C225.669 356.979 224.574 356.853 223.452 356.826C222.33 356.798 221.209 356.537 220.087 356.368C211.087 354.639 202.508 351.003 195.134 347.533C192.586 346.288 186.298 342.937 180.265 339.126C174.232 335.315 168.38 331.293 166.047 329.596C155.92 322.251 146.339 314.182 137.379 305.453C130.629 298.854 126.006 293.82 122.311 289.626C120.458 287.579 118.894 285.621 117.354 283.865L113.142 278.64C111.782 276.907 110.514 275.077 109.077 273.129C107.64 271.182 106.282 268.941 104.73 266.415C100.785 259.337 96.2694 252.306 94.1132 244.296C91.6854 236.401 90.9085 228.107 90.508 219.854C90.0666 211.587 90.4336 203.295 91.6038 195.098C92.7847 186.911 94.9235 178.89 97.9763 171.201C100.619 164.718 103.966 158.545 107.958 152.792C112.205 146.89 116.726 140.881 122.328 135.798C133.269 125.473 146.289 117.721 158.116 112.396C165.002 109.248 168.811 107.893 175.807 105.234C181.27 103.393 186.861 101.955 192.535 100.934C198.678 99.7368 204.967 99.8271 209.915 99.8431C227.45 100.32 244.826 104.129 261.292 110.121C269.551 113.124 277.484 116.957 284.969 121.56C286.899 122.656 288.599 124.007 290.45 125.222C292.3 126.437 293.957 127.882 295.721 129.185C299.2 131.868 302.664 134.589 306.04 137.43C310.511 141.12 314.771 145.058 318.801 149.226C323.122 153.619 327.028 158.403 330.467 163.515C333.758 168.587 336.499 173.995 338.644 179.647C342.269 189.048 343.964 203.266 344.118 205L344.09 205.023ZM350.183 178.874C347.806 171.225 343.9 161.484 336.615 153.777C333.047 149.901 329.187 146.304 325.071 143.017C321.046 139.767 317.107 136.629 313.396 133.644C305.99 127.737 300.181 122.034 295.856 118.815C294.06 117.587 292.328 116.343 290.519 115.234L284.948 112.059C283.053 111.105 281.187 110.035 279.334 108.945C277.459 107.907 275.522 106.987 273.532 106.192C265.551 103.115 257.365 100.596 249.035 98.6523C240.712 96.7505 232.282 95.3484 223.79 94.4537C215.258 93.4874 206.657 93.2772 198.087 93.8257C195.933 94.0729 193.778 94.2789 191.608 94.5633C189.438 94.8476 187.377 95.2719 185.286 95.745C181.087 96.6271 176.935 97.7187 172.845 99.0157C164.677 101.582 156.723 104.785 149.056 108.594C141.382 112.408 134.037 116.849 127.094 121.871C120.228 127.014 113.722 132.622 107.622 138.653C97.4422 148.719 89.575 162.491 84.9243 177.414C80.2736 192.337 79.2153 208.518 80.6426 223.932C81.0056 228.318 82.7238 237.956 85.3662 247.561C85.983 249.971 86.746 252.342 87.651 254.659C88.0955 255.807 88.5204 256.943 88.934 258.032C89.3475 259.121 89.9638 260.12 90.4467 261.117C91.4301 263.116 92.4761 264.892 93.3191 266.517L95.6738 270.604C99.1486 276.499 101.398 279.979 103.894 283.582C107.09 288.145 110.528 292.534 114.194 296.731C118.816 302.073 121.702 305.016 124.366 307.806C127.031 310.595 129.56 313.201 133.759 317.415C133.773 317.47 134.453 318.078 135.494 318.941L139.398 322.278C142.392 324.813 145.817 327.684 147.54 329.229C152.356 333.507 157.405 337.515 162.665 341.234C170.333 346.75 178.398 351.693 186.795 356.023C187.51 356.465 188.7 357.017 190.221 357.796L192.789 359.087L195.946 360.509C201.658 363.102 207.606 365.14 213.708 366.595C220.915 368.243 229.639 369.007 238.52 367.015C247.939 365.352 256.968 361.958 265.151 357.006C273.583 351.694 281.037 344.972 287.187 337.133C293.053 329.721 298.13 321.719 302.337 313.256C306.372 305.31 309.623 297.737 312.427 291.137C315.319 284.657 318.52 279.524 321.57 276.066C327.18 269.127 334.323 263.431 340.189 256.721C341.653 255.082 343.023 253.362 344.293 251.569C344.954 250.709 345.546 249.798 346.063 248.845C346.621 247.92 347.182 247.003 347.718 246.091C348.706 244.189 349.48 242.263 350.351 240.397C351.078 238.483 351.585 236.522 352.186 234.639C352.615 233.271 352.933 231.87 353.136 230.45C353.387 229.15 353.594 227.944 353.803 226.813C354.012 225.747 354.143 224.667 354.194 223.583C354.27 222.558 354.335 221.586 354.418 220.626C354.851 216.812 354.64 213.362 354.556 208.684C354.578 206.3 354.245 201.832 354.036 199.662C353.499 194.869 352.559 186.415 350.211 178.85L350.183 178.874ZM353.141 212.087C353.139 213.385 353.136 214.849 353.139 216.545C353.008 218.24 352.858 220.197 352.678 222.478C352.622 223.703 352.504 224.926 352.325 226.139C352.099 227.441 351.853 228.832 351.583 230.327C351.463 231.071 351.326 231.845 351.181 232.653C351.035 233.462 350.731 234.234 350.493 235.074C350.255 235.913 349.996 236.766 349.726 237.646C349.503 238.579 349.194 239.489 348.803 240.364C348.428 241.287 348.012 242.219 347.589 243.153C347.197 244.167 346.722 245.147 346.168 246.084C345.055 248.194 343.781 250.215 342.356 252.13C339.474 256.312 332.181 263.592 330.715 264.753C329.249 265.915 318.493 275.389 314.166 281.992C313.587 282.782 313.075 283.618 312.633 284.492L311.24 287.058C310.252 288.786 309.517 290.494 308.735 292.214L304.06 302.568C300.816 309.875 297.17 316.996 293.138 323.9C288.523 331.877 282.827 339.178 276.212 345.596C275.875 345.96 274.976 346.818 273.613 348.096C272.25 349.374 270.197 350.795 267.85 352.619C261.599 356.886 254.773 360.244 247.578 362.592L241.016 364.364C238.738 364.824 236.397 365.159 234.044 365.579C229.292 366.331 224.456 366.381 219.69 365.728C210.051 364.487 200.734 361.171 192.875 357.553C187.457 354.873 182.197 351.888 177.119 348.611C170.711 344.558 164.675 339.982 162.253 338.124C151.747 329.956 141.791 321.105 132.449 311.628C125.39 304.473 120.515 299.05 116.588 294.587C112.661 290.125 109.658 286.594 106.718 282.94C103.409 278.841 100.312 274.575 97.4388 270.16C95.0912 266.515 92.9588 262.735 91.0525 258.841C89.2463 254.912 87.8177 250.819 86.7859 246.619C85.6898 242.402 84.7826 238.106 83.9971 233.797L82.9417 227.308C82.5775 225.151 82.4705 222.957 82.2339 220.777C81.4512 212.032 81.6897 203.225 82.9447 194.534C84.2289 185.844 86.6868 177.368 90.251 169.338C95.9535 156.456 105.734 143.435 117.525 132.704C129.316 121.973 143.16 113.772 155.637 107.931L160.59 105.667C162.092 104.996 163.517 104.385 164.936 103.783C166.355 103.182 167.799 102.649 169.322 102.031C170.845 101.413 172.513 100.776 174.38 100.099C180.206 98.164 186.196 96.7635 192.276 95.9149C198.425 95.2262 204.619 95.0249 210.799 95.313C229.47 96.0807 247.947 99.4016 265.714 105.183C274.633 108.025 283.176 111.935 291.155 116.827L294.045 118.796C295.039 119.41 295.985 120.098 296.874 120.855C298.652 122.354 300.485 123.806 302.2 125.387C305.659 128.535 309.215 131.58 312.868 134.521C317.358 138.215 322.32 142.037 327.192 146.245C332.223 150.449 336.71 155.262 340.55 160.574C344.17 165.898 346.956 171.744 348.809 177.909C350.321 183.092 351.435 188.382 352.142 193.734C352.431 196.508 353.143 202.506 353.253 205.607C353.332 207.583 353.159 209.48 353.169 212.064L353.141 212.087ZM362.841 192.066C362.713 190.575 361.792 186.873 361.372 185.071C360.952 183.268 360.57 181.281 359.954 179.218C357.104 169.399 352.768 160.072 347.098 151.562C340.986 142.391 333.603 134.133 325.17 127.034C318.873 121.74 312.137 116.989 305.036 112.833C303.13 111.631 301.066 110.601 299.056 109.516C297.045 108.431 295.035 107.346 292.942 106.439C290.85 105.532 288.87 104.365 286.863 103.23C284.857 102.094 282.759 101.163 280.647 100.278C272.092 97.0852 263.442 94.2568 254.663 91.7176C245.889 89.1028 236.96 87.0435 227.927 85.5518C223.401 84.8529 218.843 84.383 214.269 84.1439L210.894 83.955L209.208 83.8644L207.483 83.9245L200.615 84.1907C191.449 84.9384 178.247 87.7115 174.823 89.0396C172.765 89.854 169.141 91.1806 167.195 91.9096C165.25 92.6386 161.033 94.5746 161.033 94.5746C158.9 95.3572 156.854 96.3599 154.758 97.2251L151.617 98.5846C150.595 99.0732 149.594 99.6149 148.592 100.149C146.573 101.195 144.535 102.196 142.549 103.275L136.76 106.864C134.794 108.023 132.994 109.39 131.128 110.723C129.262 112.057 127.435 113.38 125.649 114.769C118.363 120.251 111.016 125.723 104.523 132.285C99.0844 137.975 94.2991 144.255 90.2564 151.008C86.1098 158.129 82.6534 165.63 79.9344 173.408C74.77 189.379 72.3489 206.108 72.7738 222.885C72.7849 223.481 72.823 224.154 72.8505 224.92C72.8781 225.687 73.0581 226.533 73.177 227.403C73.4321 229.212 73.6439 231.29 74.1509 233.52C74.6578 235.751 75.0653 238.156 75.7608 240.615C76.0632 241.864 76.3676 243.121 76.7425 244.394C77.1174 245.667 77.5061 246.928 77.8986 248.206C80.5593 256.826 83.7631 265.268 87.4908 273.484C88.8976 276.241 90.4571 278.917 92.162 281.5C93.6289 283.64 94.9349 285.527 96.3746 287.382C100.003 292.125 103.893 296.66 108.029 300.968C113.251 306.414 116.467 309.453 119.447 312.34L129.883 322.237C129.991 322.336 132.737 324.673 135.957 327.419C139.177 330.165 142.85 333.234 144.676 334.863C150.024 339.763 168.313 354.761 184.733 366.443C186.212 367.499 189.23 369.787 193.674 372.711C194.853 373.544 196.124 374.239 197.463 374.779L199.643 375.673C200.397 375.964 201.188 376.172 202.014 376.421C205.543 377.475 209.143 378.282 212.785 378.835C216.956 379.593 221.188 379.96 225.427 379.932C230.08 379.887 234.727 379.564 239.342 378.965C249.412 377.12 259.124 373.676 268.107 368.765C277.38 363.504 285.509 356.446 292.017 348.005C298.169 339.962 303.331 331.209 307.393 321.936C311.35 313.252 314.572 305.046 317.57 297.974C318.316 296.206 319.011 294.474 319.8 292.952C320.198 292.19 320.674 291.476 321.084 290.762L322.504 288.755C324.274 286.541 326.228 284.479 328.344 282.592C331.864 279.328 335.646 276.283 339.251 273.056C342.862 269.89 346.215 266.442 349.279 262.744C355.011 255.726 359.207 247.585 361.594 238.847C362.922 233.956 363.803 228.955 364.226 223.906C364.397 221.86 364.559 219.917 364.582 217.849L364.642 214.658C364.613 213.542 364.404 209.002 364.374 207.745C364.265 202.69 363.059 193.344 362.869 192.043L362.841 192.066ZM363.351 207.577C363.296 211.748 363.836 216.108 362.871 225.906C362.208 232.479 360.711 238.942 358.415 245.139C356.71 249.669 354.489 253.988 351.795 258.01C348.804 262.568 342.095 269.507 339.435 271.582C336.774 273.656 332.785 277.184 329.453 279.82C326.083 282.372 323.03 285.317 320.359 288.592C319.039 290.27 317.923 292.098 317.033 294.038L314.582 299.621C312.984 303.335 311.387 307.048 309.816 310.871C306.576 318.844 302.923 326.644 298.87 334.237C294.449 342.169 288.876 350.362 280.85 357.637C280.465 358.004 279.491 358.897 277.972 360.255C276.37 361.474 274.225 363.066 271.604 364.89C264.653 369.225 257.157 372.618 249.312 374.979C246.971 375.621 244.624 376.239 242.178 376.898C239.72 377.437 237.227 377.799 234.717 377.981C232.143 378.247 229.511 378.411 226.884 378.49C224.269 378.622 221.649 378.564 219.044 378.318C213.858 377.85 208.719 376.955 203.681 375.643C202.477 375.277 201.242 374.953 200.087 374.55C198.933 374.148 197.763 373.683 196.694 373.185C194.619 372.074 192.593 370.685 190.657 369.391C187.995 367.541 181.448 362.707 175.041 357.663C168.635 352.62 162.296 347.444 159.783 345.35C145.678 333.605 135.453 324.306 127.566 316.894C119.679 309.482 114.175 303.904 109.717 299.312C105.259 294.72 101.958 291.02 98.6517 287.197C94.9721 282.926 91.6956 278.325 88.8643 273.451L87.3518 270.332L85.9911 267.119C85.046 264.981 84.1763 262.81 83.3821 260.608C82.5157 258.439 81.738 256.224 80.9995 253.999C80.261 251.775 79.5128 249.544 78.8706 247.305C76.2491 238.301 74.1887 229.037 74.0029 219.643C74.0137 210.204 74.8921 200.786 76.627 191.507C78.4643 182.247 81.3408 173.223 85.2018 164.606C88.5247 157.335 92.6129 150.438 97.3973 144.031C98.6634 142.386 99.9256 140.725 101.292 139.08C102.658 137.435 104.16 135.974 105.637 134.443C108.702 131.488 111.912 128.687 115.257 126.051C116.877 124.702 118.516 123.358 120.205 122.084C121.042 121.415 127.97 115.347 129.653 114.083C131.336 112.818 132.972 111.225 134.7 110.074C136.427 108.924 137.948 107.541 139.659 106.495C141.369 105.449 143.04 104.337 144.82 103.474C148.302 101.666 151.634 99.7531 155.025 98.3248C156.982 97.4351 158.695 96.6045 160.233 95.7745C166.163 93.0378 172.272 90.7081 178.519 88.8015C180.83 88.2417 192.466 85.6985 194.238 85.5603C196.011 85.4221 197.763 85.1642 199.516 84.9807C201.269 84.7973 202.993 84.9038 204.682 84.8689C206.372 84.834 207.992 84.7908 209.587 84.8454L214.063 85.1834C219.058 85.4291 223.987 86.3644 228.924 87.0567C233.83 88.1055 238.749 89.0016 243.577 90.3439C253.281 92.7839 262.828 95.8775 272.332 99.1061C291.416 105.187 309.58 114.585 324.903 127.581C334.351 135.664 343.985 146.611 350.702 159.055C357.134 170.804 361.028 186.676 362.004 192.735C362.301 194.442 363.302 205.585 363.379 207.554L363.351 207.577ZM371.224 184.789C370.962 183.189 370.261 181.396 369.936 179.471C369.478 177.577 368.934 175.505 368.366 173.298C368.098 172.19 367.781 171.053 367.472 169.88C367.331 169.299 367.187 168.702 367.001 168.106C366.815 167.511 366.576 166.937 366.363 166.332C365.5 163.938 364.601 161.428 363.667 158.843C361.472 153.507 358.865 148.349 355.87 143.417C349.772 133.41 341.885 124.609 332.603 117.45C331.519 116.615 330.472 115.796 329.442 114.981C328.412 114.166 327.271 113.577 326.231 112.89C324.132 111.543 322.188 110.151 320.197 109.145C318.205 108.139 316.424 107.073 314.779 106.157C313.135 105.242 311.519 104.619 310.166 103.948C307.999 102.901 305.809 101.868 303.544 101.003C301.279 100.138 299.079 99.132 296.798 98.3372C294.516 97.5425 292.299 96.566 290.064 95.5854C287.824 94.6348 285.536 93.801 283.209 93.0875C273.857 90.4873 264.502 88.287 255.205 85.948L241.212 82.4675L227.037 79.4719C224.687 78.91 222.258 78.7083 219.879 78.3363L212.689 77.3416C207.88 76.5645 203.003 76.2961 198.138 76.541C178.667 77.83 160.151 84.6426 143.237 93.8447C134.761 98.4642 126.712 103.828 119.187 109.873C117.341 111.426 115.46 112.937 113.659 114.538C111.857 116.138 110.103 117.794 108.401 119.495C106.699 121.196 104.792 122.706 103.065 124.405C101.477 126.144 99.7962 127.795 98.0284 129.35C94.9948 132.014 91.6513 134.945 89.427 138.51C88.1762 140.219 86.9725 141.915 85.9012 143.747C84.8299 145.578 83.5984 147.331 82.5794 149.241C78.2853 156.888 74.8275 164.975 72.2659 173.361C71.6612 175.503 70.9116 177.597 70.4478 179.772C69.9841 181.947 69.4693 184.117 68.9663 186.301C68.2679 190.703 67.4458 195.11 67.1845 199.565C66.6448 204.003 66.7286 208.474 66.5891 212.915C66.8302 217.347 66.7906 221.789 67.3676 226.165C67.5172 227.401 67.709 229.018 67.9299 230.927C68.1509 232.836 68.6764 234.938 69.0978 237.33C69.5191 239.723 70.0631 242.244 70.5805 244.897C71.098 247.549 71.9446 250.255 72.6438 253.004C75.4957 263.956 79.5316 274.779 82.2505 279.992C82.9606 281.618 83.7587 283.204 84.6413 284.744C85.3169 286.086 86.0736 287.385 86.9072 288.636C88.2432 290.851 89.7898 292.933 91.5253 294.852C95.0322 298.336 98.7872 301.95 105.21 307.954C111.078 313.386 114.512 316.571 117.723 319.552C121.066 322.393 124.137 325.075 129.18 329.609L135.75 334.879C139.211 337.692 143.1 340.933 145.068 342.668C147.935 345.225 154.188 350.497 161.802 356.778C165.645 359.897 169.713 363.395 173.837 366.953C177.961 370.512 182.228 374.11 186.271 377.572C186.996 378.228 188.093 379.185 189.553 380.47C190.285 381.124 191.067 381.841 192.026 382.607C192.51 382.989 192.999 383.394 193.522 383.8L195.293 384.893C200.288 387.75 207.596 389.506 216.019 389.853C225.458 390.223 234.906 389.399 244.139 387.4L251.757 385.556C254.278 384.762 256.829 383.853 259.402 382.997C260.696 382.56 261.96 382.04 263.186 381.441L266.927 379.703C267.555 379.41 268.195 379.163 268.803 378.825L270.62 377.769L274.266 375.639C283.824 369.567 292.076 361.651 298.539 352.355C300.063 350.023 301.738 347.797 303.127 345.423C304.516 343.049 306.007 340.75 307.242 338.356C308.476 335.961 309.816 333.657 310.915 331.287C312.014 328.917 313.108 326.598 314.117 324.266C318.204 315.027 321.604 306.312 324.725 298.82C327.519 291.249 332.91 286.601 336.725 283.074C340.509 279.662 344.506 276.441 348.315 272.99C352.115 269.607 355.647 265.935 358.88 262.008C361.985 258.166 364.653 253.991 366.835 249.561C368.872 245.375 370.497 241.002 371.688 236.502C373.024 231.286 373.851 225.953 374.157 220.578C374.281 218.411 374.408 216.359 374.356 214.151C374.351 213.063 374.346 211.942 374.363 210.74C374.38 209.538 373.682 202.738 373.607 201.401C373.226 196.046 371.481 186.157 371.252 184.765L371.224 184.789ZM372.705 203.516C372.742 207.964 373.174 212.325 372.434 222.708C371.91 229.66 370.466 236.511 368.138 243.083C366.39 247.893 364.092 252.484 361.29 256.767C357.683 262.171 353.463 267.139 348.712 271.572C341.299 277.425 333.698 281.985 327.642 288.733C326.865 289.545 326.222 290.499 325.521 291.384C324.864 292.322 324.267 293.299 323.733 294.312L322.932 295.853L322.268 297.336L320.986 300.291C319.269 304.233 317.646 308.218 315.965 312.243C312.615 320.297 309.197 328.593 304.771 337.158C300.345 345.722 294.844 354.589 286.84 362.781C285.908 363.779 284.915 364.719 283.868 365.596L281.14 368.078C280.076 368.976 278.777 369.831 277.427 370.857C274.8 372.998 271.284 374.839 267.542 377.051C265.573 377.96 263.471 378.869 261.325 379.871C260.236 380.39 259.108 380.822 257.95 381.162L254.422 382.366C253.213 382.733 252.028 383.236 250.768 383.533L246.947 384.458C244.376 385.081 241.77 385.762 239.045 386.197C233.585 387.163 228.066 387.76 222.525 387.986C217.05 388.264 211.561 387.919 206.163 386.959C203.602 386.495 201.092 385.78 198.672 384.823C196.408 383.892 194.296 382.629 192.405 381.076C189.852 378.784 183.416 372.999 176.958 367.228C173.761 364.335 170.512 361.438 167.775 358.966L161.352 353.444C154.024 347.069 147.521 341.525 141.886 336.536C136.25 331.548 131.352 327.237 127.059 323.428L121.008 318.133C119.092 316.509 117.47 314.831 115.878 313.379L107.447 305.541C102.436 300.933 98.4994 297.463 94.4692 293.915L92.9531 292.569C92.4819 292.101 92.0836 291.59 91.6479 291.097C90.7375 290.062 89.8857 288.977 89.0966 287.848C88.6831 287.274 88.2462 286.673 87.8311 286.058C87.4159 285.444 87.0346 284.763 86.6356 284.078C85.721 282.664 84.8859 281.2 84.1341 279.694L82.5052 276.404C81.9342 275.316 81.4291 274.194 80.9926 273.045C80.0917 270.768 79.1594 268.499 78.2883 266.174C76.8351 261.445 75.1793 256.773 74.1116 251.917L72.3557 244.666L71.0342 237.319C70.6388 234.862 70.0806 232.419 69.7912 229.952L68.9273 222.536C67.2766 202.694 70.1814 182.315 78.1279 164.024C85.1688 148.033 95.3952 133.641 108.184 121.727C121.285 109.29 135.952 98.5777 149.941 91.3895C156.733 87.8571 163.82 84.9222 171.121 82.618C177.718 80.3477 184.53 78.7539 191.45 77.8612C198.417 76.9736 205.478 77.1566 212.388 78.404C233.408 81.2057 253.761 87.5118 274.377 92.4985C284.701 95.0103 294.812 98.3257 304.618 102.414C314.451 106.473 323.706 111.806 332.146 118.276C333.429 119.313 334.791 120.297 336.079 121.424L339.846 124.985C340.493 125.594 341.13 126.196 341.785 126.803C342.439 127.41 342.942 128.144 343.565 128.792L347.159 132.911C348.396 134.275 349.344 135.85 350.459 137.326C351.573 138.803 352.692 140.295 353.645 141.893L356.485 146.744L357.902 149.162C358.328 149.99 358.696 150.858 359.107 151.698C365.619 164.84 368.768 179.013 371.149 190.769C371.466 192.938 372.591 201.398 372.732 203.492L372.705 203.516ZM384.665 187.022C384.362 185.358 383.507 182.654 383.109 180.597C382.62 178.578 381.683 176.426 381.04 174.079C378.615 164.687 374.004 153.238 367.89 142.153L365.518 138.029C364.752 136.622 363.905 135.261 362.983 133.952C361.159 131.334 359.342 128.713 357.533 126.124C355.523 123.7 353.537 121.271 351.583 118.942C350.633 117.766 349.612 116.649 348.526 115.599L345.42 112.467C341.734 108.623 337.648 105.183 333.231 102.205C329.884 99.9531 326.378 97.9478 322.739 96.2047C318.07 93.9489 313.224 92.0769 308.251 90.6073C303.322 89.0565 298.343 87.5013 293.321 86.2477C288.298 84.9942 283.169 84.3652 278.086 83.517L262.887 81.1022C252.963 79.3723 243.169 76.3219 233.18 73.7348C223.19 71.1477 212.971 68.7491 202.362 68.7237C197.118 68.7373 191.882 69.1544 186.701 69.9716L182.832 70.5927L179.002 71.3787C176.444 71.8484 173.942 72.546 171.416 73.2159C161.379 75.926 151.631 79.6124 142.313 84.2221C133.016 88.7819 124.148 94.1664 115.814 100.311C113.694 101.864 111.646 103.408 109.663 105.085L106.659 107.559C105.679 108.395 104.742 109.304 103.788 110.176L100.974 112.853C100.057 113.774 99.1846 114.742 98.33 115.68L95.6913 118.531L92.623 121.395C91.932 122.219 84.9524 128.625 83.4042 130.48L79.4084 135.872L75.6787 141.607C65.7684 157.731 59.5594 175.85 57.4989 194.659C56.5201 204.08 56.4115 213.571 57.1743 223.012C58.2981 232.703 60.1936 242.288 62.8427 251.677C63.7017 254.571 64.4799 257.509 65.4063 260.304C66.3327 263.098 67.2655 265.816 68.1115 268.347C68.9575 270.878 69.7714 273.243 70.6917 275.29C71.612 277.337 72.2277 279.193 72.9589 280.562C75.4932 286.256 78.5228 291.717 82.0127 296.881C85.0538 301.259 88.8426 305.598 96.2805 311.464C103.134 316.532 106.985 319.682 110.629 322.6C114.274 325.518 117.53 328.414 122.867 333.267L129.78 339.061C133.417 342.122 137.504 345.664 139.516 347.613C142.463 350.468 148.906 356.35 156.723 363.405C164.541 370.46 173.755 378.748 182.483 386.09C184.052 387.415 187.228 390.288 192.086 393.885C193.398 394.89 194.841 395.713 196.374 396.332C198.024 396.822 199.76 397.391 201.6 397.91C205.276 398.932 209.309 400.018 213.724 400.961L217.111 401.613C218.265 401.808 219.456 401.877 220.648 401.988C221.84 402.098 223.055 402.236 224.276 402.331C225.498 402.426 226.787 402.389 228.03 402.437C229.274 402.485 230.547 402.518 231.875 402.47L235.803 402.193C236.468 402.156 237.138 402.102 237.793 402.06C238.449 402.018 239.115 401.848 239.795 401.733L243.835 401.062C254.517 398.567 265.681 394.558 275.854 388.211C286.064 381.78 295.009 373.534 302.246 363.882C305.793 359.213 309.043 354.326 311.977 349.25C313.491 346.805 314.728 344.252 316.095 341.817C317.461 339.382 318.485 336.805 319.68 334.387C324.261 324.604 327.966 315.332 331.362 307.325C332.184 305.313 332.976 303.383 333.738 301.535C334.137 300.64 334.544 299.777 334.959 298.944C335.439 298.146 335.867 297.336 336.379 296.596C338.178 293.949 340.248 291.497 342.555 289.279C350.303 281.682 359.248 275.108 366.68 267.271C374.205 259.577 380.134 250.657 383.636 241.542C385.751 236.088 387.192 230.396 387.93 224.594C388.259 222.291 388.458 219.972 388.528 217.647C388.556 216.459 388.503 215.241 388.467 213.96C388.432 212.68 388.35 211.344 388.153 209.879C387.956 208.413 387.449 203.878 387.271 202.525C387.021 199.808 384.945 188.418 384.693 186.999L384.665 187.022ZM386.254 206.264C386.294 207.46 386.354 208.634 386.403 209.903C386.433 210.544 386.462 211.211 386.505 211.908C386.549 212.604 386.494 213.341 386.485 214.125C386.469 215.709 386.459 217.457 386.302 219.558C386.22 220.592 386.141 221.709 386.016 222.912C385.891 224.115 385.675 225.389 385.477 226.768C384.303 234.178 381.969 241.358 378.561 248.044C376.036 252.918 373.014 257.518 369.543 261.771C365.09 267.104 360.27 272.12 355.117 276.782C351.139 279.907 347.24 282.847 343.54 285.922C339.84 288.997 336.327 292.293 333.66 296.365L332.671 297.918L331.833 299.543C331.23 300.662 330.849 301.669 330.357 302.728L327.602 309.017L322.15 321.731C318.46 330.275 314.582 339.04 309.599 348.055C304.616 357.071 298.408 366.283 289.572 374.785C289.161 375.217 288.056 376.258 286.393 377.808C285.968 378.185 285.52 378.602 285.03 379.053L283.351 380.333L279.402 383.343C271.832 388.642 263.54 392.829 254.781 395.776C253.497 396.247 252.188 396.644 250.858 396.967L246.801 398.082C245.439 398.491 244.056 398.826 242.658 399.086C241.265 399.348 239.858 399.589 238.444 399.832C232.621 400.587 226.733 400.696 220.887 400.158C217.951 399.954 215.035 399.52 212.167 398.86C209.266 398.224 206.417 397.559 203.605 396.776C202.199 396.434 200.811 396.064 199.461 395.642C198.152 395.331 196.872 394.909 195.635 394.382C193.341 393.019 191.145 391.497 189.064 389.827C183.275 385.408 161.705 365.143 156.29 360.034C126.139 331.485 110.109 317.529 98.1627 309.029C92.53 304.671 88.4777 300.929 84.9657 296.565C81.0203 291.576 77.6183 286.18 74.8175 280.47C73.5028 278.169 72.6227 275.737 71.5558 273.359C70.6269 270.898 69.7199 268.39 68.9111 265.875L66.3961 258.343L64.2293 250.701C61.4804 240.424 59.6424 229.924 58.7364 219.324C57.897 208.691 58.4138 197.995 60.2742 187.492C62.1715 176.987 65.4535 166.78 70.0346 157.136C73.9652 148.993 78.7331 141.28 84.2614 134.123C84.9943 133.197 85.6862 132.239 86.4484 131.331C87.2106 130.423 89.1559 128.455 89.94 127.5C90.7241 126.545 92.7018 124.195 93.503 123.311C95.1174 121.523 96.4556 119.419 98.2007 117.724C99.9459 116.029 101.513 114.219 103.387 112.609C117.16 100.149 132.896 90.044 149.96 82.7029C154.487 80.7751 157.948 79.4296 161.49 78.2475C163.247 77.5975 165.017 77.0358 166.943 76.4694C168.824 75.7811 170.835 75.0114 173.164 74.3891C180.332 72.3044 187.703 70.9988 195.151 70.4951C203.188 69.7628 211.268 70.958 217.539 72.0755C228.65 74.2413 239.496 77.511 250.481 80.2562C261.466 83.0014 272.757 84.3668 283.941 86.2155C295.126 88.0643 306.312 90.3699 316.876 94.5726C327.49 98.6702 337.078 105.04 344.965 113.234C355.02 123.099 364.539 136.528 371.276 150.979C378.109 165.275 381.861 179.843 384.475 192.491C384.813 194.779 386.061 203.99 386.254 206.264ZM400.502 184.817C400.235 180.965 398.861 174.603 397.541 166.781C396.481 161.102 394.93 155.526 392.906 150.116C390.594 143.966 387.471 138.153 383.618 132.83C375.648 121.879 365.612 112.093 356.735 103.581C354.483 101.499 352.435 99.3669 350.232 97.5553C349.101 96.6649 348.017 95.7632 346.938 94.9516L343.562 92.9003C342.523 92.2533 341.439 91.682 340.318 91.1909C339.255 90.6834 338.222 90.2015 337.251 89.7299L331.839 87.6227C326.627 85.8239 321.314 84.3337 315.927 83.16L311.914 82.2274L307.871 81.3435C305.216 80.6892 302.489 80.1521 299.776 79.6366C294.364 78.5939 288.877 78.0349 283.437 77.4645L267.029 75.8663C256.167 75.0039 245.566 72.7143 234.962 69.9268C224.358 67.1392 213.752 64.1026 202.678 63.0506C197.141 62.5036 191.559 62.6188 186.049 63.3936C180.58 64.1861 175.182 65.4098 169.907 67.0532C159.412 70.3693 149.253 74.6671 139.566 79.8894C129.869 85.0447 120.592 90.9507 111.817 97.5532C107.425 100.862 103.236 104.388 98.8396 107.715C94.4434 111.041 89.9416 114.344 85.9416 118.206C84.3084 119.801 82.8339 121.551 81.5389 123.431C80.1415 125.324 78.4349 127.11 76.8872 128.898C73.3625 132.18 70.9955 136.462 68.2401 140.481C62.8957 148.879 58.4985 157.842 55.1289 167.207C48.3191 186.171 46.1527 207.228 49.489 227.019C49.807 229.844 50.8761 234.259 52.0517 239.629C52.7576 242.269 53.5092 245.097 54.3142 248.112C55.1193 251.127 56.1502 254.113 57.0881 257.195C59.0901 263.297 61.3333 269.398 63.5653 274.662C64.6301 277.307 65.6355 279.774 66.5016 281.976C67.3678 284.178 68.0849 286.109 68.8544 287.602C70.6147 291.675 72.41 294.758 73.925 297.543C75.7002 300.165 77.0334 302.611 78.8553 304.773C79.7316 305.883 80.5839 307.065 81.5777 308.213L84.9274 311.735C86.1262 313.008 87.6262 314.15 89.1792 315.545C89.9768 316.266 90.8313 316.921 91.7344 317.504C92.7222 318.147 93.7195 318.828 94.7302 319.565C102.273 324.591 106.823 327.331 110.868 330.218L116.938 334.836L120.431 337.541C121.055 338.022 121.705 338.538 122.399 339.068C123.094 339.599 123.73 340.268 124.449 340.9L131.838 346.978C133.828 348.525 135.767 350.417 137.556 352.097C139.344 353.776 140.908 355.285 141.969 356.334C143.529 357.86 145.9 360.33 148.848 363.433C151.797 366.536 155.366 370.171 159.207 374.313C166.902 382.512 175.955 392.129 184.558 400.707C185.679 401.97 186.914 403.127 188.249 404.162C190.542 405.692 193.04 406.89 195.669 407.721C201.78 409.825 209.955 411.446 219.461 412.554C224.213 413.066 229.326 413.491 234.721 413.706C237.412 413.787 240.17 413.834 243.038 413.68C244.477 413.63 245.908 413.437 247.309 413.103L251.565 412.222C254.431 411.686 257.303 410.899 260.213 410.128C263.122 409.357 265.998 408.311 268.925 407.303C270.394 406.803 271.829 406.211 273.223 405.53L277.499 403.563C278.871 402.765 280.252 401.973 281.614 401.17L283.669 399.965L285.618 398.562L289.488 395.712L293.05 392.479L294.838 390.857C295.407 390.287 295.924 389.671 296.47 389.073L299.708 385.503C301.732 383 303.692 380.438 305.558 377.832C307.424 375.227 309.141 372.557 310.75 369.822C316.968 359.371 322.538 348.549 327.43 337.417C332.196 326.957 336.366 317.165 340.031 308.652C340.947 306.525 341.797 304.432 342.723 302.586C343.154 301.65 343.747 300.8 344.24 299.915C344.734 299.03 345.351 298.282 345.909 297.49C348.003 294.778 350.329 292.253 352.862 289.944C361.365 282.063 370.882 275.001 378.758 266.624C382.688 262.544 386.236 258.113 389.36 253.387C392.302 248.886 394.79 244.105 396.789 239.114C397.504 237.219 398.198 235.446 398.681 233.799C399.165 232.152 399.724 230.611 400.047 229.127C400.37 227.644 400.784 226.296 401.046 224.969C401.307 223.641 401.513 222.361 401.74 221.133C402.106 218.687 402.343 216.223 402.449 213.751C402.522 210.996 402.443 208.239 402.213 205.492C402.095 203.941 401.975 202.481 401.794 201.045C401.612 199.609 401.656 197.486 401.459 196.053C401.137 193.246 400.775 188.211 400.493 184.778L400.502 184.817ZM400.455 201.461C400.373 203.975 400.526 206.5 400.342 209.862C400.235 211.551 400.258 213.434 399.959 215.635C399.837 216.746 399.682 217.931 399.557 219.2C399.432 220.47 399.106 221.804 398.883 223.289C398.66 224.773 398.277 226.321 397.874 227.99C397.471 229.66 396.979 231.442 396.397 233.338C395.816 235.233 395.038 237.209 394.272 239.341C393.35 241.41 392.472 243.66 391.233 245.898C388.552 251.107 385.35 256.031 381.675 260.595C377.017 266.35 371.922 271.737 366.436 276.71C362.268 280.123 358.131 283.279 354.186 286.546C350.242 289.813 346.479 293.211 343.479 297.322C341.946 299.367 340.639 301.571 339.578 303.896L336.528 310.614C334.548 315.086 332.58 319.571 330.577 324.122C326.618 333.239 322.424 342.588 317.646 352.551C312.725 362.408 307.207 372.992 299.072 383.253C298.121 384.49 297.101 385.672 296.018 386.795C295.191 387.678 294.306 388.798 293.146 389.886L289.231 393.445C285.837 396.307 282.167 398.825 278.276 400.963L276.644 401.924C276.075 402.186 275.491 402.453 274.91 402.735L271.28 404.379C270.026 404.949 268.741 405.449 267.431 405.877C266.109 406.33 264.768 406.804 263.412 407.29C260.655 408.174 257.752 408.869 254.841 409.699L245.764 411.639C242.699 412.044 239.606 412.192 236.517 412.082C233.339 412.02 230.14 411.905 226.962 411.702C220.664 411.303 214.393 410.573 208.172 409.516C202.138 408.416 196.245 407.074 191.278 404.676C190.15 404.108 189.081 403.428 188.09 402.645C187.448 402.088 186.842 401.49 186.275 400.856L184.22 398.693C181.345 395.655 177.929 392.133 174.586 388.502L158.612 371.031C154.923 366.935 151.265 363.172 147.924 359.582C146.272 357.778 144.588 356.115 142.926 354.513L138.167 349.845C135.136 346.745 132.007 344.201 129.191 341.681C126.375 339.162 123.754 336.794 121.073 334.865C110.794 326.544 102.528 321.66 96.0279 317.363L91.6033 314.351L87.8447 311.203C86.6143 310.212 85.611 309.025 84.5183 307.984C83.9711 307.443 83.4277 306.917 82.9139 306.376L81.4713 304.647C77.0533 299.5 73.3504 293.781 70.4628 287.645C69.1356 285.189 68.1984 282.522 67.0959 279.928L63.9065 272.085L62.2962 268.15C61.7882 266.843 61.3512 265.485 60.8629 264.157C59.9474 261.476 58.9181 258.806 58.1498 256.115C54.6307 245.318 52.0504 234.238 50.4375 222.997C48.9413 211.714 49.1695 200.269 51.1144 189.053C53.097 177.838 56.6872 166.967 61.7741 156.775C66.1354 148.189 71.3505 140.064 77.3404 132.522C78.0353 131.464 78.7925 130.447 79.6078 129.478C80.4565 128.549 81.3561 127.625 82.2674 126.714C84.0664 124.898 85.8478 123.077 87.6528 121.252L90.3124 118.487L93.0813 115.796L95.8502 113.104L98.6871 110.488C113.967 96.6002 131.453 85.4634 147.367 77.4931C149.706 76.3277 151.742 75.2857 153.691 74.3979C155.64 73.5102 157.411 72.5741 159.238 71.7991C163.215 69.9775 167.321 68.4521 171.524 67.2354C177.91 65.3562 186.337 63.4486 194.941 63.5105C203.545 63.5724 212.034 65.3587 218.613 66.992C230.295 69.9344 241.856 73.613 253.746 75.6982C259.687 76.7544 265.717 77.3232 271.755 77.8901C277.793 78.457 283.772 79.0215 289.772 79.7391C295.772 80.4566 301.789 81.2449 307.746 82.3385C313.712 83.3807 319.621 84.7253 325.451 86.3672C331.273 88.0045 336.914 90.2271 342.288 93.0009C347.713 95.7786 352.01 100.119 356.418 104.265C361.84 109.472 367.655 115.099 373.229 121.309C378.803 127.518 384.211 134.25 388.247 141.739C392.283 149.227 394.636 157.431 396.189 165.288C397.577 172.361 398.23 179.113 399.105 185.372C399.279 187.533 399.828 191.999 399.933 194.152C399.988 196.476 400.381 199.025 400.441 201.406L400.455 201.461ZM410.471 174.087C409.965 171.997 409.278 170.018 408.781 167.727C408.505 166.588 408.21 165.37 407.972 164.147C407.734 162.924 407.242 161.646 406.857 160.334C403.219 147.852 397.894 135.925 391.031 124.881C387.096 118.94 382.923 112.915 377.855 107.897C373.058 102.974 367.771 98.5534 362.075 94.7038C351.302 87.3334 340.723 83.2423 333.986 80.7159C328.494 78.8085 322.901 77.2034 317.233 75.908C314.399 75.3053 311.588 74.5225 308.724 74.002C305.859 73.4814 303.056 72.73 300.139 72.3718C297.261 71.9015 294.36 71.5881 291.448 71.433C288.537 71.3062 285.626 71.0382 282.701 71.0564C276.775 70.9863 271.216 71.0267 265.542 70.3134C254.253 68.8893 243.076 65.8663 231.896 62.9687C220.716 60.0711 209.437 57.0395 197.729 55.9162C191.875 55.4138 185.979 55.7797 180.231 57.0019C174.521 58.1951 168.912 59.8314 163.456 61.896C152.577 65.949 142.074 70.9468 132.067 76.8321C122.047 82.6496 112.458 89.1794 103.375 96.3711C98.989 100.153 94.1794 103.421 89.7488 107.155L83.2504 112.97L77.0184 119.095L72.0497 124.456C71.1915 125.346 70.4367 126.319 69.6409 127.26C68.8451 128.201 68.0315 129.172 67.2824 130.168C65.712 132.103 64.3247 134.211 62.865 136.294C62.1433 137.3 61.3956 138.371 60.7205 139.433L58.6691 142.716C53.1504 151.604 48.6628 161.092 45.2931 170.995C41.8586 181.129 39.8506 191.691 39.3269 202.377C38.8302 213.019 39.6755 223.68 41.843 234.109C42.545 237.008 43.6769 241.682 45.0332 247.283C45.7124 250.087 46.7278 253.043 47.6262 256.169C48.5246 259.294 49.4751 262.532 50.6929 265.705C51.9107 268.878 52.9298 272.124 54.1739 275.199C55.4179 278.274 56.7099 281.237 57.8876 284.004C60.5282 289.444 62.7645 294.141 64.6231 297.142C66.5465 300.553 68.6723 303.845 70.9891 307.002C71.9974 308.313 73.046 309.481 74.0102 310.645C74.514 311.213 74.9647 311.802 75.4726 312.353L77.0951 313.898C81.4211 318.014 86.4839 321.736 95.1168 327.829C110.787 338.82 113.635 340.476 126.468 350.507C126.546 350.555 127.49 351.291 128.917 352.409C130.345 353.527 132.354 355.053 134.36 356.804C136.365 358.556 138.631 360.319 140.509 362.093C142.387 363.867 144.07 365.388 145.255 366.498C146.879 368.118 149.396 370.71 152.502 373.983L157.374 379.53C159.081 381.562 160.751 383.852 162.578 386.171C164.404 388.489 165.969 391.171 167.754 393.799C168.628 395.117 169.536 396.45 170.478 397.796C171.376 399.167 172.542 400.34 173.576 401.62C177.994 406.536 183.234 410.647 189.061 413.77L190.986 414.842C191.773 415.242 192.741 415.631 193.791 416.117C196.441 417.267 199.165 418.238 201.944 419.024L207.109 420.659C208.919 421.261 210.886 421.857 212.97 422.384C215.053 422.91 217.214 423.584 219.5 424.054C221.785 424.523 224.232 425.003 226.754 425.208C236.833 426.517 248.53 425.464 260.469 422.457C272.451 419.63 284.859 414.263 295.337 405.738C305.815 397.213 313.904 385.766 319.929 373.87C325.953 361.974 330.314 349.633 334.394 338.233C338.475 326.833 342.345 316.283 346.222 307.41C348.13 303.433 350.629 299.766 353.634 296.534C354.934 295.111 356.322 293.77 357.788 292.518C358.433 291.908 359.138 291.364 359.892 290.894C360.626 290.491 361.472 290.17 362.222 289.831C363.586 289.111 364.846 288.21 365.968 287.152C367.135 286.163 368.283 285.128 369.387 284.087C371.634 281.955 373.815 279.755 376.092 277.682C380.702 273.588 385.257 269.474 389.381 265.058C397.675 256.313 404.385 246.355 408.133 236.159C410.466 230.066 412.086 223.724 412.961 217.26C413.582 211.824 413.756 206.347 413.482 200.884C413.242 194.364 411.172 177.119 410.481 174.059L410.471 174.087ZM411.184 189.199C411.331 191.658 411.889 194.584 411.9 196.036C411.91 197.489 412.277 201.891 412.186 205.431C412.078 207.187 412.057 209.196 411.871 211.52C411.684 213.843 411.464 216.541 410.862 219.623C409.524 227.979 406.95 236.091 403.225 243.693C400.437 249.228 397.068 254.451 393.174 259.274C388.202 265.324 382.695 270.913 376.719 275.975C372.405 279.672 368.153 283.114 363.931 286.44C362.911 287.32 361.794 288.081 360.603 288.709C359.375 289.271 358.236 290.009 357.221 290.9C355.185 292.595 353.304 294.47 351.604 296.502C348.261 300.531 345.58 305.065 343.662 309.935C341.672 314.708 339.7 319.485 337.672 324.342C335.644 329.199 333.75 334.198 331.851 339.348C330.882 341.911 329.919 344.498 328.922 347.151C327.925 349.804 327.057 352.509 326.053 355.239C321.992 366.135 317.197 377.816 309.158 389.16C306.265 393.287 303 397.139 299.403 400.67C291.856 408.004 282.917 413.754 273.112 417.582C271.67 418.122 270.222 418.706 268.733 419.225L266.448 419.894C266.103 420.086 265.603 419.841 265.155 419.709C264.706 419.576 264.346 419.805 263.955 419.874C260.871 420.68 257.688 421.492 254.46 422.116C247.947 423.504 241.309 424.226 234.649 424.269C228.021 424.284 221.421 423.41 215.027 421.669L210.34 420.459L205.767 419.072L197.007 416.37C193.914 415.155 190.924 413.693 188.066 411.998C187.08 411.46 186.13 410.857 185.224 410.192C184.272 409.491 183.237 408.86 182.299 408.081C181.361 407.302 180.394 406.472 179.423 405.659C178.464 404.819 177.549 403.931 176.681 402.997L175.35 401.656L174.162 400.189C173.387 399.187 172.509 398.277 171.852 397.247C170.531 395.23 169.22 393.252 167.983 391.34C166.745 389.427 165.664 387.743 164.709 386.311C163.755 384.879 162.816 383.751 162.171 382.909C155.87 374.587 148.817 366.86 141.101 359.829C134.324 353.702 128.22 348.636 122.67 344.45C111.613 336.009 103.229 330.463 96.5229 325.834C89.8171 321.204 84.5644 317.694 79.6531 313.669C78.5096 312.591 77.228 311.629 76.1385 310.429C75.0489 309.229 73.9382 307.976 72.7375 306.695C71.5367 305.414 70.6086 303.884 69.4552 302.317C68.2292 300.649 67.1069 298.908 66.0948 297.102L63.8008 293.3C63.0867 292.001 62.4456 290.659 61.7689 289.343C60.4432 286.687 59.027 284.069 57.9455 281.287C56.864 278.506 55.5798 275.815 54.5159 273.037L51.535 264.611C50.4811 261.806 49.7301 258.911 48.8611 256.044C47.9922 253.178 47.1546 250.304 46.3938 247.403L44.2746 238.652C43.5689 235.737 42.814 232.826 42.3715 229.865C40.0926 218.066 39.7277 205.976 41.2909 194.06C42.9331 182.14 46.3822 170.54 51.5195 159.657C55.8296 150.42 61.1298 141.678 67.3271 133.583C73.7262 125.09 81.6508 117.466 89.8211 110.306C91.7892 108.433 94.0298 106.859 95.9375 104.942C97.8313 103.007 99.8434 101.193 101.962 99.5074C104.037 97.7658 106.154 96.197 108.254 94.5575C110.354 92.918 112.482 91.3964 114.656 89.8554C122.812 84.0382 131.307 78.7123 140.098 73.9061L143.51 72.0153L146.642 70.3754C148.639 69.3096 150.491 68.3289 152.396 67.435C154.302 66.541 156.163 65.5663 158.253 64.7109C160.343 63.8556 162.552 62.905 165.091 62.0155C166.74 61.4001 168.526 60.8013 170.433 60.2563L173.331 59.3714L176.389 58.6308C180.685 57.5169 185.086 56.8554 189.519 56.657C198.601 56.3538 207.553 58.3355 214.544 59.9855C226.917 62.9603 239.073 66.7608 251.533 69.548C257.745 71.0101 264.059 72.0025 270.42 72.5168C273.595 72.7043 276.797 72.7273 279.981 72.7463C283.164 72.7653 286.37 72.7707 289.548 73.0073C302.334 73.5964 315.008 75.6618 327.318 79.1623C333.439 81.007 339.421 83.282 345.221 85.9703C348.178 87.2169 350.912 88.85 353.767 90.3291C355.166 91.088 356.491 91.9895 357.856 92.8149C359.221 93.6403 360.59 94.4813 361.862 95.4374C368.823 100.194 375.136 105.836 380.641 112.22C382.007 113.944 383.408 115.708 384.786 117.412C386.057 119.244 387.333 121.078 388.615 122.913C389.963 124.732 391.019 126.722 392.199 128.64L393.943 131.544C394.503 132.515 394.991 133.536 395.49 134.496C403.825 149.941 409.766 178.116 410.127 180.673C410.263 182.403 410.989 186.469 411.194 189.172L411.184 189.199ZM420.597 156C420.112 154.613 419.612 153.203 419.09 151.733C418.821 150.967 418.553 150.275 418.273 149.528C417.992 148.781 417.627 148.063 417.305 147.317C416.649 145.813 415.978 144.312 415.293 142.757C414.608 141.201 413.723 139.71 412.954 138.15C411.44 134.991 409.519 131.938 407.744 128.734C406.832 127.134 405.751 125.624 404.76 124.043C403.77 122.462 402.791 120.861 401.625 119.38C400.459 117.899 399.381 116.331 398.27 114.804C397.159 113.276 395.893 111.862 394.704 110.387C392.362 107.386 389.654 104.724 387.11 101.988C385.865 100.627 384.397 99.4106 383.069 98.1189C381.74 96.8272 380.412 95.5689 378.998 94.4393C377.584 93.3097 376.185 92.1685 374.81 91.0627L372.747 89.4168C372.025 88.9097 371.31 88.4341 370.616 87.937C367.947 85.985 365.177 84.1741 362.319 82.5116C359.771 80.9369 357.144 79.4941 354.447 78.1891C350.224 75.968 345.82 74.1079 341.283 72.6287C329.567 68.9293 317.436 66.9522 305.31 65.2319C299.232 64.4001 293.144 63.9701 287.04 63.5439L268.797 62.2403C256.623 61.4214 244.805 59.0192 232.928 56.1656C221.051 53.312 209.127 50.262 196.707 49.4277C190.522 48.9484 184.304 49.1192 178.154 49.9372C172.039 50.9302 166.014 52.4171 160.138 54.3832C154.296 56.334 148.557 58.5815 142.943 61.1171C137.373 63.7216 131.856 66.4383 126.53 69.4994C105.176 81.6063 85.5802 97.0214 69.4543 115.629C56.0607 130.948 44.4373 150.071 37.9639 171.489C34.6968 182.263 32.8063 193.405 32.3374 204.652C32.0411 215.859 33.0038 227.062 35.2077 238.053C37.8054 249.302 41.1125 260.375 45.1091 271.207C49.8899 284.694 56.1854 297.905 60.0946 304.218C62.1494 307.828 64.5735 311.216 67.3279 314.325C69.7789 316.817 71.9142 319.036 74.1737 321.183C80.0526 326.644 86.328 331.662 92.9484 336.196C109.69 347.626 113.045 348.901 126.302 359.72L128.836 361.834C130.296 363.086 132.355 364.716 134.369 366.673C138.602 370.405 142.907 375.158 145.147 377.602L152.187 386.051C155.022 389.855 158.671 394.268 162.161 399.436C165.762 404.51 169.55 410.32 174.693 415.062C179.739 419.846 185.438 423.892 191.619 427.08C192.14 427.378 192.814 427.789 193.651 428.185C194.487 428.581 195.475 429.049 196.601 429.574C198.805 430.704 201.695 431.742 205.022 433.04C213.556 435.988 222.443 437.798 231.452 438.424C242.122 439.282 254.391 438.016 266.884 434.409C270.028 433.647 273.139 432.436 276.331 431.422C279.44 430.17 282.658 429.058 285.734 427.532C292.115 424.644 298.112 420.973 303.587 416.605C309.154 412.13 313.991 406.818 317.925 400.858C321.789 394.879 324.926 388.46 327.269 381.739C332.06 368.462 334.321 354.842 337.845 342.587C341.369 330.332 346.194 319.6 351.663 311.249C352.974 309.102 354.438 307.209 355.77 305.322C357.103 303.436 358.343 301.581 359.538 299.778C360.732 297.975 361.975 296.335 363.245 294.88C364.382 293.283 365.97 292.383 367.205 291.227C377.102 282.917 387.927 275.448 397.157 266.51C406.386 257.572 414.01 247.368 418.216 236.62C419.036 234.508 419.645 232.523 420.258 230.686L421.654 225.491C422.352 222.22 423.039 219.385 423.413 216.633C423.943 213.91 424.085 211.264 424.383 208.506C424.503 207.113 424.528 205.669 424.617 204.183C424.707 202.698 424.802 201.095 424.799 199.399C424.796 197.703 424.824 196.067 424.854 194.471C424.883 192.875 424.727 191.3 424.715 189.706C424.78 186.538 423.706 165.401 420.597 156ZM423.326 186.857C423.265 189.458 423.716 192.177 423.717 194.829C423.611 197.658 423.714 200.452 423.385 204.182C423.248 206.053 423.1 208.16 422.746 210.616C422.568 211.84 422.46 213.18 422.204 214.564C421.948 215.948 421.666 217.497 421.361 219.126C421.057 220.755 420.565 222.47 420.127 224.339C419.689 226.208 418.986 228.15 418.35 230.267C416.687 235.055 414.623 239.694 412.179 244.136C408.956 249.822 405.139 255.152 400.79 260.033C395.275 266.179 389.317 271.914 382.964 277.19C378.222 280.875 373.642 284.437 369.151 287.887C366.946 289.676 364.706 291.391 362.7 293.349C360.698 295.276 358.807 297.317 357.039 299.46C349.833 307.813 344.209 317.406 340.441 327.771C336.445 338.211 334.111 349.504 331.448 361.5C330.057 367.509 328.533 373.691 326.421 379.99C324.263 386.596 321.325 392.922 317.668 398.833L316.665 400.432C316.167 401.159 315.495 402.062 314.702 403.152C313.795 404.429 312.819 405.656 311.781 406.829C310.672 408.228 309.237 409.59 307.738 411.134C304.176 414.6 300.262 417.686 296.06 420.341C293.765 421.928 291.126 423.199 288.504 424.707C285.748 425.973 282.972 427.435 279.937 428.545C273.649 431.044 267.194 433.099 260.619 434.695C253.751 436.302 246.742 437.231 239.693 437.467C232.682 437.549 225.68 436.973 218.777 435.746C212.311 434.456 205.977 432.574 199.855 430.125C195.921 428.417 185.9 423.741 177.776 416.453C173.898 413.053 170.449 409.194 167.503 404.961C164.846 401.106 162.661 397.926 161.398 396.111C154.196 386.063 147.376 377.561 140.662 370.663C134.809 364.576 128.515 358.929 121.831 353.767C115.971 349.365 110.738 345.768 106.106 342.723C101.474 339.678 97.4779 337.029 93.9317 334.586C92.13 333.401 90.5207 332.185 88.9166 331.06C87.3125 329.935 85.8808 328.835 84.4454 327.719C83.0099 326.603 81.6702 325.538 80.3324 324.482L76.5613 321.179L74.6296 319.526L72.7445 317.687C71.4784 316.48 70.1831 315.256 68.8471 313.966C68.1458 313.304 67.5939 312.606 66.9382 311.892C66.2825 311.177 65.6227 310.481 65.0523 309.637C63.8798 307.992 62.5821 306.31 61.4257 304.353C58.1339 299.017 55.2309 293.45 52.7393 287.696C50.211 281.93 47.8619 276.079 45.7706 270.123C41.6036 258.209 37.9173 246.046 35.4923 233.627C30.7562 208.54 33.6419 182.609 43.7779 159.17C51.6496 140.399 65.435 121.268 82.0176 105.302C97.8996 90.065 115.867 77.1598 135.381 66.9734C144.008 62.4064 152.945 58.4498 162.126 55.1327C170.484 52.1887 179.258 50.5973 188.117 50.4186C197.031 50.4685 205.914 51.4909 214.606 53.4675C227.725 56.2614 240.678 59.952 253.983 62.0023C260.63 63.0872 267.339 63.5746 274.063 64.0504L294.218 65.4148C307.635 66.4484 321.098 67.8784 334.18 71.1719C340.73 72.7642 347.065 75.1392 353.046 78.2457C354.537 79.0072 356.096 79.6693 357.549 80.4816L361.923 83.04C364.886 84.6591 367.569 86.6624 370.375 88.594C377.606 93.7758 384.248 99.7328 390.183 106.359C396.483 113.417 402.031 121.112 406.737 129.319C411.345 137.413 415.063 145.981 417.828 154.875C418.165 155.957 418.542 156.997 418.84 158.056C419.138 159.115 419.359 160.2 419.663 161.249C420.175 163.362 420.765 165.423 421.13 167.547C421.495 169.671 421.994 171.629 422.232 173.642C422.533 175.232 422.404 177.276 422.676 178.674C423.088 181.383 423.302 184.119 423.318 186.859L423.326 186.857Z" fill="#FAE8C9"/>
</svg>
