<?xml version="1.0" encoding="UTF-8" standalone="no"?>
<!DOCTYPE svg PUBLIC "-//W3C//DTD SVG 1.1//EN" "http://www.w3.org/Graphics/SVG/1.1/DTD/svg11.dtd">
<svg width="100%" height="100%" viewBox="0 0 632 416" version="1.1" xmlns="http://www.w3.org/2000/svg" xmlns:xlink="http://www.w3.org/1999/xlink" xml:space="preserve" xmlns:serif="http://www.serif.com/" style="fill-rule:evenodd;clip-rule:evenodd;stroke-linejoin:round;stroke-miterlimit:2;">
    <g transform="matrix(1,0,0,1,-175.5,-263.017742)">
        <g transform="matrix(0.1,0,0,-0.1,0,958)">
            <path d="M7470,6943C7470,6938 7484,6917 7500,6896C7556,6822 7536,6800 7434,6819C7323,6839 7256,6805 7273,6737C7277,6724 7295,6694 7314,6670C7358,6615 7366,6585 7345,6554C7322,6518 7265,6495 7155,6475C7100,6466 7044,6456 7030,6453C7007,6449 7006,6450 7023,6463C7033,6472 7074,6486 7113,6495C7253,6529 7309,6565 7295,6612C7286,6638 7232,6660 7176,6660C7123,6660 7100,6668 7100,6685C7100,6706 7150,6740 7181,6740C7213,6740 7228,6755 7204,6764C7195,6767 7165,6770 7136,6770C7069,6770 7017,6738 7012,6696C7008,6663 7056,6606 7096,6596C7109,6592 7120,6585 7120,6580C7120,6575 7087,6553 7048,6533C7008,6512 6958,6478 6937,6458C6904,6426 6899,6416 6902,6383L6905,6345L6960,6342C7015,6339 7016,6339 7025,6372C7040,6423 7085,6440 7200,6440C7303,6440 7400,6460 7440,6488C7473,6513 7498,6564 7492,6596C7490,6610 7463,6648 7433,6681C7356,6763 7363,6773 7483,6764C7563,6759 7581,6760 7603,6775C7640,6799 7639,6844 7603,6882C7581,6905 7578,6913 7589,6919C7600,6926 7598,6930 7582,6939C7559,6951 7470,6954 7470,6943Z" style="fill:white;fill-rule:nonzero;"/>
        </g>
        <g transform="matrix(0.1,0,0,-0.1,0,958)">
            <path d="M5876,6418C5811,6367 5734,6307 5705,6285C5676,6263 5555,6169 5435,6075C5205,5895 5047,5771 4726,5520C4183,5096 4206,5117 4232,5063C4239,5047 4254,5034 4265,5032C4278,5030 4378,5099 4550,5228C5166,5690 5979,6298 5989,6305C5998,6310 6181,6185 6461,5981C6503,5950 6546,5919 6556,5912C6567,5905 6616,5870 6665,5835C7673,5112 7602,5159 7640,5180C7666,5194 7693,5254 7685,5279C7682,5289 7622,5339 7552,5390C7482,5442 7400,5502 7369,5524C7339,5547 7283,5587 7244,5614L7175,5662L7181,6210L6890,6210L6890,6045C6890,5954 6887,5880 6884,5880C6881,5880 6823,5920 6756,5968C6208,6367 6008,6510 5999,6510C5996,6510 5940,6468 5876,6418ZM7120,6070C7120,6052 7113,6050 7036,6050C6989,6050 6948,6055 6945,6060C6931,6082 6955,6090 7036,6090C7113,6090 7120,6088 7120,6070ZM7118,5953C7115,5927 7112,5925 7065,5925C7018,5925 7015,5927 7012,5953C7009,5980 7009,5980 7065,5980C7121,5980 7121,5980 7118,5953Z" style="fill:rgb(130,61,21);fill-rule:nonzero;"/>
        </g>
        <g transform="matrix(0.1,0,0,-0.1,0,958)">
            <path d="M6290,5809C6202,5769 6170,5721 6170,5632L6170,5572L6133,5586C6020,5626 5894,5561 5883,5457C5875,5393 5886,5361 5926,5323L5961,5290L5924,5290C5788,5290 5756,5082 5883,5021C5945,4991 5989,4995 6119,5040C6182,5062 6266,5087 6306,5095C6442,5123 6637,5110 6742,5066C6763,5057 6782,5050 6785,5050C6788,5050 6788,5074 6785,5103C6740,5481 6612,5746 6442,5810C6376,5835 6347,5835 6290,5809Z" style="fill:rgb(221,35,51);fill-rule:nonzero;"/>
        </g>
        <g transform="matrix(0.1,0,0,-0.1,0,958)">
            <path d="M2847,5303C2832,5288 2842,5272 2873,5264L2905,5254L2908,5045C2909,4929 2908,4825 2905,4812C2902,4798 2888,4785 2870,4778C2853,4773 2840,4762 2840,4756C2840,4746 2896,4742 3067,4737C3192,4733 3297,4733 3302,4738C3312,4748 3333,4888 3326,4906C3323,4914 3308,4920 3291,4920C3268,4920 3261,4915 3256,4893C3236,4806 3211,4790 3097,4790L3040,4790L3042,5022L3045,5254L3078,5262C3100,5268 3110,5276 3110,5290C3110,5309 3103,5310 2982,5310C2911,5310 2850,5307 2847,5303Z" style="fill:white;fill-rule:nonzero;"/>
        </g>
        <g transform="matrix(0.1,0,0,-0.1,0,958)">
            <path d="M3581,5302C3576,5300 3542,5213 3505,5107C3395,4791 3397,4796 3366,4782C3342,4770 3332,4738 3353,4739C3357,4740 3401,4740 3450,4740C3521,4740 3540,4743 3540,4754C3540,4762 3526,4773 3509,4779C3481,4789 3479,4792 3485,4822C3488,4840 3496,4870 3501,4888L3512,4920L3686,4920L3703,4868C3728,4791 3728,4787 3700,4780C3686,4777 3674,4766 3672,4755C3669,4736 3675,4735 3802,4737C3909,4739 3936,4742 3938,4754C3940,4762 3929,4774 3914,4782C3889,4793 3874,4825 3791,5047L3696,5298L3643,5302C3614,5304 3586,5304 3581,5302ZM3637,5083L3667,4985L3602,4982C3567,4980 3536,4981 3534,4983C3529,4988 3593,5180 3601,5180C3604,5180 3620,5136 3637,5083Z" style="fill:white;fill-rule:nonzero;"/>
        </g>
        <g transform="matrix(0.1,0,0,-0.1,0,958)">
            <path d="M2182,4905C2085,4883 2012,4842 1934,4765C1856,4688 1816,4621 1778,4500C1758,4434 1755,4405 1755,4260C1755,4154 1760,4075 1769,4040C1816,3849 1949,3713 2135,3665C2226,3642 2393,3644 2461,3669C2513,3689 2691,3797 2703,3817C2710,3828 2670,3930 2660,3930C2657,3930 2632,3911 2605,3889C2532,3828 2460,3798 2374,3792C2214,3782 2114,3861 2060,4040C2020,4174 2015,4411 2050,4565C2073,4668 2134,4760 2197,4786C2241,4805 2376,4804 2432,4784C2494,4763 2515,4737 2534,4655C2544,4617 2554,4577 2556,4568C2560,4553 2573,4550 2621,4550L2680,4550L2680,4858L2653,4869C2545,4912 2296,4931 2182,4905Z" style="fill:white;fill-rule:nonzero;"/>
        </g>
        <g transform="matrix(0.1,0,0,-0.1,0,958)">
            <path d="M4256,4664C4078,4625 3990,4525 3990,4361C3990,4282 4006,4235 4048,4189C4092,4139 4143,4113 4290,4065C4478,4004 4510,3978 4510,3888C4510,3826 4485,3784 4433,3759C4395,3741 4376,3738 4302,3742C4180,3749 4145,3767 4125,3836C4117,3865 4110,3892 4110,3897C4110,3901 4105,3922 4099,3943C4089,3979 4087,3980 4045,3980L4001,3980L3996,3928C3992,3899 3989,3837 3987,3790L3985,3705L4054,3683C4092,3671 4168,3656 4222,3650C4487,3621 4666,3698 4715,3864C4744,3960 4727,4061 4672,4122C4630,4169 4594,4188 4480,4225C4312,4280 4244,4309 4223,4338C4166,4415 4194,4539 4276,4571C4318,4587 4434,4584 4491,4565C4549,4546 4554,4536 4570,4433L4582,4360L4678,4360L4684,4438C4688,4480 4693,4540 4696,4572L4701,4628L4633,4644C4458,4683 4369,4688 4256,4664Z" style="fill:white;fill-rule:nonzero;"/>
        </g>
        <g transform="matrix(0.1,0,0,-0.1,0,958)">
            <path d="M5340,4673C5135,4642 4998,4524 4949,4338C4925,4248 4923,4070 4945,3986C4978,3858 5058,3752 5158,3701C5256,3651 5443,3634 5556,3664C5782,3724 5900,3900 5900,4175C5900,4338 5863,4445 5774,4540C5680,4641 5495,4697 5340,4673ZM5527,4564C5619,4496 5664,4300 5642,4068C5619,3830 5548,3730 5403,3730C5320,3730 5244,3799 5215,3902C5176,4043 5178,4287 5219,4421C5241,4491 5285,4549 5335,4575C5378,4598 5490,4591 5527,4564Z" style="fill:white;fill-rule:nonzero;"/>
        </g>
        <g transform="matrix(0.1,0,0,-0.1,0,958)">
            <path d="M3224,4633C3220,4623 3207,4586 3194,4550C3145,4416 3047,4139 2991,3975C2958,3882 2929,3797 2925,3787C2921,3777 2900,3760 2878,3749C2843,3731 2839,3725 2842,3697L2845,3665L3155,3665L3158,3697C3161,3727 3159,3729 3123,3736C3039,3751 3037,3759 3079,3895L3106,3985L3405,3985L3442,3875C3462,3815 3476,3762 3474,3758C3472,3755 3455,3749 3437,3745C3373,3732 3370,3730 3370,3696L3370,3663L3600,3664L3830,3664L3830,3701C3830,3735 3827,3738 3796,3744C3778,3748 3756,3758 3748,3768C3740,3777 3681,3925 3616,4095C3551,4266 3477,4460 3452,4528L3405,4650L3317,4650C3242,4650 3229,4647 3224,4633ZM3370,4093C3370,4083 3340,4080 3255,4080C3192,4080 3140,4083 3140,4088C3140,4096 3233,4381 3250,4425C3261,4454 3265,4446 3316,4280C3345,4184 3370,4099 3370,4093Z" style="fill:white;fill-rule:nonzero;"/>
        </g>
        <g transform="matrix(0.1,0,0,-0.1,0,958)">
            <path d="M6060,4615C6060,4583 6063,4580 6098,4574C6176,4560 6170,4594 6170,4167C6170,3875 6167,3780 6158,3769C6151,3760 6126,3748 6102,3741C6062,3730 6059,3727 6062,3697L6065,3665L6395,3665L6398,3697C6401,3727 6399,3729 6353,3742C6319,3752 6302,3763 6294,3780C6281,3808 6266,4420 6278,4420C6282,4420 6298,4399 6313,4372C6328,4346 6387,4254 6443,4168C6499,4081 6596,3931 6659,3835L6772,3659L6849,3662L6925,3665L6928,4107L6930,4549L6978,4563C7022,4576 7025,4579 7028,4613L7031,4650L6690,4650L6690,4616C6690,4582 6691,4581 6745,4569C6775,4562 6806,4550 6813,4542C6822,4531 6826,4453 6828,4261C6830,4115 6829,3998 6826,4001C6823,4004 6752,4116 6667,4251C6583,4385 6492,4530 6465,4572L6415,4650L6060,4650L6060,4615Z" style="fill:white;fill-rule:nonzero;"/>
        </g>
        <g transform="matrix(0.1,0,0,-0.1,0,958)">
            <path d="M7416,4578C7390,4509 7326,4328 7194,3950C7163,3859 7131,3777 7123,3768C7114,3759 7095,3748 7080,3745C7057,3740 7051,3733 7048,3703C7046,3684 7049,3666 7054,3664C7060,3662 7133,3661 7215,3662L7365,3665L7368,3697C7371,3725 7368,3729 7338,3735C7271,3748 7270,3749 7270,3790C7270,3812 7281,3865 7296,3910L7321,3991L7623,3985L7656,3880C7675,3822 7690,3770 7690,3763C7690,3757 7675,3749 7658,3745C7593,3732 7590,3730 7590,3696L7590,3663L7820,3664L8051,3664L8048,3699C8045,3730 8041,3736 8008,3745C7988,3751 7967,3760 7962,3765C7954,3774 7919,3861 7820,4120C7805,4161 7752,4297 7704,4423L7616,4650L7445,4650L7416,4578ZM7529,4274C7557,4186 7582,4106 7586,4097C7592,4082 7580,4080 7470,4080C7349,4080 7349,4080 7355,4103C7359,4115 7386,4196 7416,4284C7446,4371 7470,4445 7471,4449C7472,4458 7475,4449 7529,4274Z" style="fill:white;fill-rule:nonzero;"/>
        </g>
        <g transform="matrix(0.1,0,0,-0.1,0,958)">
            <path d="M1794,3496C1791,3488 1790,3467 1792,3448L1795,3415L4933,3412L8071,3410L8068,3457L8065,3505L4932,3508C2248,3510 1799,3508 1794,3496Z" style="fill:rgb(130,61,21);fill-rule:nonzero;"/>
        </g>
        <g transform="matrix(0.1,0,0,-0.1,0,958)">
            <path d="M3605,3151C3541,3135 3498,3101 3474,3043C3442,2969 3469,2863 3531,2820C3570,2792 3660,2782 3713,2799C3816,2833 3861,2986 3797,3081C3759,3138 3677,3168 3605,3151ZM3679,3089C3749,3064 3766,2935 3708,2873C3679,2842 3609,2841 3580,2870C3520,2930 3530,3047 3598,3084C3631,3103 3639,3103 3679,3089Z" style="fill:rgb(130,61,21);fill-rule:nonzero;"/>
        </g>
        <g transform="matrix(0.1,0,0,-0.1,0,958)">
            <path d="M4014,3140C3970,3118 3950,3087 3950,3040C3950,2997 3987,2963 4060,2938C4129,2913 4148,2888 4114,2863C4089,2845 4050,2847 4006,2869C3969,2889 3968,2889 3948,2870C3902,2828 3974,2786 4081,2792C4160,2796 4195,2820 4206,2878C4218,2939 4193,2971 4109,3005C4045,3031 4035,3039 4035,3060C4035,3095 4076,3108 4120,3087C4151,3071 4153,3071 4171,3093C4189,3115 4189,3115 4169,3133C4157,3142 4136,3150 4121,3150C4107,3150 4086,3153 4075,3155C4064,3158 4037,3151 4014,3140Z" style="fill:rgb(130,61,21);fill-rule:nonzero;"/>
        </g>
        <g transform="matrix(0.1,0,0,-0.1,0,958)">
            <path d="M7413,3148C7370,3137 7330,3087 7330,3045C7330,2997 7364,2964 7440,2938C7485,2922 7506,2909 7508,2896C7517,2852 7439,2835 7384,2869L7352,2888L7329,2864C7309,2843 7308,2838 7321,2826C7343,2805 7398,2790 7455,2790C7544,2790 7600,2847 7584,2923C7577,2955 7531,2993 7475,3010C7453,3017 7429,3027 7423,3033C7402,3049 7408,3080 7435,3092C7456,3101 7468,3100 7497,3086C7533,3069 7534,3069 7552,3092C7575,3123 7575,3126 7543,3138C7501,3154 7448,3158 7413,3148Z" style="fill:rgb(130,61,21);fill-rule:nonzero;"/>
        </g>
        <g transform="matrix(0.1,0,0,-0.1,0,958)">
            <path d="M1900,2975C1900,2809 1901,2800 1919,2800C1930,2800 1945,2797 1954,2794C1968,2789 1970,2797 1970,2848L1970,2909L2028,2916C2130,2928 2160,2955 2160,3033C2160,3118 2109,3150 1973,3150L1900,3150L1900,2975ZM2060,3080C2083,3068 2094,3025 2080,3000C2072,2984 2059,2980 2020,2980L1970,2980L1970,3028C1970,3055 1973,3080 1977,3083C1987,3093 2039,3091 2060,3080Z" style="fill:rgb(130,61,21);fill-rule:nonzero;"/>
        </g>
        <g transform="matrix(0.1,0,0,-0.1,0,958)">
            <path d="M2357,3127C2301,3093 2277,3047 2276,2975C2276,2904 2295,2863 2346,2823C2376,2801 2395,2795 2449,2792C2533,2788 2582,2814 2618,2880C2638,2918 2641,2935 2637,2989C2632,3059 2614,3091 2560,3128C2513,3160 2411,3159 2357,3127ZM2520,3072C2571,3020 2570,2914 2518,2868C2485,2839 2424,2844 2389,2879C2364,2905 2360,2916 2360,2965C2360,3028 2380,3077 2413,3090C2455,3107 2491,3101 2520,3072Z" style="fill:rgb(130,61,21);fill-rule:nonzero;"/>
        </g>
        <g transform="matrix(0.1,0,0,-0.1,0,958)">
            <path d="M2780,3150L2780,2800L3000,2800L3000,2860L2850,2860L2850,3150L2780,3150Z" style="fill:rgb(130,61,21);fill-rule:nonzero;"/>
        </g>
        <g transform="matrix(0.1,0,0,-0.1,0,958)">
            <path d="M3130,3151L3130,2800L3361,2800L3358,2828C3355,2854 3353,2855 3282,2860L3208,2865L3207,3005L3205,3145L3168,3148L3130,3151Z" style="fill:rgb(130,61,21);fill-rule:nonzero;"/>
        </g>
        <g transform="matrix(0.1,0,0,-0.1,0,958)">
            <path d="M4629,3123C4614,3085 4519,2817 4517,2806C4516,2801 4530,2797 4549,2797C4578,2796 4585,2801 4599,2831C4614,2864 4617,2865 4676,2868L4737,2871L4754,2831C4769,2793 4772,2791 4802,2797C4820,2800 4838,2805 4842,2809C4845,2812 4838,2842 4825,2875C4812,2908 4784,2982 4762,3040L4723,3145L4681,3148C4644,3151 4639,3148 4629,3123ZM4704,2981C4713,2951 4720,2925 4720,2923C4720,2921 4702,2920 4680,2920C4653,2920 4640,2924 4640,2934C4640,2961 4673,3051 4681,3043C4685,3039 4695,3011 4704,2981Z" style="fill:rgb(130,61,21);fill-rule:nonzero;"/>
        </g>
        <g transform="matrix(0.1,0,0,-0.1,0,958)">
            <path d="M5150,3150L5150,2800L5380,2800L5380,2860L5230,2860L5230,3150L5150,3150Z" style="fill:rgb(130,61,21);fill-rule:nonzero;"/>
        </g>
        <g transform="matrix(0.1,0,0,-0.1,0,958)">
            <path d="M5582,3098C5540,2985 5491,2844 5485,2820C5480,2797 5482,2795 5516,2795C5549,2795 5553,2798 5564,2830C5575,2865 5576,2865 5638,2868L5701,2871L5717,2830C5733,2791 5734,2790 5769,2796C5789,2800 5807,2804 5809,2806C5811,2808 5784,2886 5750,2980L5686,3150L5644,3150C5602,3150 5601,3149 5582,3098ZM5663,3001C5689,2928 5687,2920 5640,2920C5616,2920 5600,2925 5600,2932C5600,2951 5633,3050 5639,3050C5643,3050 5653,3028 5663,3001Z" style="fill:rgb(130,61,21);fill-rule:nonzero;"/>
        </g>
        <g transform="matrix(0.1,0,0,-0.1,0,958)">
            <path d="M6110,3152L6110,2800L6199,2800C6309,2800 6344,2811 6364,2855C6386,2902 6384,2917 6350,2952C6316,2986 6314,2993 6335,3010C6346,3019 6350,3036 6348,3063C6343,3125 6312,3143 6200,3148L6110,3152ZM6264,3077C6293,3056 6281,3017 6243,3007C6197,2993 6180,3003 6180,3043C6180,3062 6183,3080 6187,3083C6198,3095 6245,3091 6264,3077ZM6284,2929C6293,2915 6296,2900 6291,2886C6284,2869 6275,2865 6234,2865C6188,2865 6185,2867 6182,2893C6177,2939 6186,2950 6229,2950C6258,2950 6273,2944 6284,2929Z" style="fill:rgb(130,61,21);fill-rule:nonzero;"/>
        </g>
        <g transform="matrix(0.1,0,0,-0.1,0,958)">
            <path d="M6517,3143C6513,3140 6510,3061 6510,2968L6510,2800L6590,2800L6590,2860C6590,2938 6605,2938 6650,2860C6685,2800 6685,2800 6733,2800L6781,2800L6740,2853C6699,2908 6689,2940 6714,2940C6722,2940 6740,2954 6755,2972C6778,2999 6781,3011 6777,3047C6772,3096 6745,3124 6690,3140C6651,3151 6527,3154 6517,3143ZM6678,3074C6702,3057 6708,3012 6688,2992C6681,2985 6657,2980 6633,2980L6590,2980L6590,3028C6590,3055 6593,3080 6597,3083C6609,3095 6655,3090 6678,3074Z" style="fill:rgb(130,61,21);fill-rule:nonzero;"/>
        </g>
        <g transform="matrix(0.1,0,0,-0.1,0,958)">
            <path d="M7005,3138C7003,3131 6976,3054 6946,2967C6915,2880 6890,2805 6890,2801C6890,2796 6906,2793 6926,2793C6958,2795 6964,2799 6974,2830C6985,2865 6986,2865 7047,2868L7109,2871L7127,2834C7137,2814 7148,2798 7153,2799C7157,2799 7174,2800 7190,2800C7207,2800 7220,2804 7220,2810C7220,2815 7193,2894 7159,2985L7098,3150L7054,3150C7027,3150 7008,3145 7005,3138ZM7089,2938C7090,2924 7082,2920 7049,2920C7008,2920 7008,2921 7013,2949C7017,2966 7027,2996 7036,3017L7052,3055L7070,3005C7080,2978 7089,2947 7089,2938Z" style="fill:rgb(130,61,21);fill-rule:nonzero;"/>
        </g>
        <g transform="matrix(0.1,0,0,-0.1,0,958)">
            <path d="M7807,3142C7804,3138 7786,3089 7767,3034C7747,2980 7721,2905 7707,2868C7693,2830 7683,2800 7683,2799C7684,2799 7702,2797 7722,2795C7758,2792 7760,2794 7770,2831L7781,2871L7847,2868C7913,2865 7913,2865 7925,2830C7936,2797 7940,2795 7976,2798C7997,2800 8016,2803 8017,2804C8021,2807 7950,3003 7917,3085C7893,3143 7891,3145 7852,3148C7830,3150 7809,3147 7807,3142ZM7873,2986C7882,2959 7887,2934 7884,2929C7878,2919 7817,2917 7807,2926C7804,2929 7811,2958 7823,2991C7834,3023 7847,3047 7851,3043C7854,3038 7865,3013 7873,2986Z" style="fill:rgb(130,61,21);fill-rule:nonzero;"/>
        </g>
    </g>
</svg>
