<?xml version="1.0" encoding="UTF-8" standalone="no"?><!DOCTYPE svg PUBLIC "-//W3C//DTD SVG 1.1//EN" "http://www.w3.org/Graphics/SVG/1.1/DTD/svg11.dtd"><svg width="100%" height="100%" viewBox="0 0 2632 1734" version="1.1" xmlns="http://www.w3.org/2000/svg" xmlns:xlink="http://www.w3.org/1999/xlink" xml:space="preserve" xmlns:serif="http://www.serif.com/" style="fill-rule:evenodd;clip-rule:evenodd;stroke-linejoin:round;stroke-miterlimit:2;"><path d="M2381.25,2.843c0,2.083 5.833,10.833 12.5,19.583c23.333,30.833 15,40 -27.5,32.083c-46.25,-8.333 -74.167,5.833 -67.083,34.167c1.667,5.417 9.167,17.917 17.083,27.917c18.333,22.917 21.667,35.417 12.917,48.333c-9.583,15 -33.333,24.583 -79.167,32.917c-22.917,3.75 -46.25,7.917 -52.083,9.167c-9.583,1.667 -10,1.25 -2.917,-4.167c4.167,-3.75 21.25,-9.583 37.5,-13.333c58.333,-14.167 81.667,-29.167 75.833,-48.75c-3.75,-10.833 -26.25,-20 -49.583,-20c-22.083,0 -31.667,-3.333 -31.667,-10.417c0,-8.75 20.833,-22.917 33.75,-22.917c13.333,0 19.583,-6.25 9.583,-10c-3.75,-1.25 -16.25,-2.5 -28.333,-2.5c-27.917,0 -49.583,13.333 -51.667,30.833c-1.667,13.75 18.333,37.5 35,41.667c5.417,1.667 10,4.583 10,6.667c0,2.083 -13.75,11.25 -30,19.583c-16.667,8.75 -37.5,22.917 -46.25,31.25c-13.75,13.333 -15.833,17.5 -14.583,31.25l1.25,15.833l22.917,1.25c22.917,1.25 23.333,1.25 27.083,-12.5c6.25,-21.25 25,-28.333 72.917,-28.333c42.917,0 83.333,-8.333 100,-20c13.75,-10.417 24.167,-31.667 21.667,-45c-0.833,-5.833 -12.083,-21.667 -24.583,-35.417c-32.083,-34.167 -29.167,-38.333 20.833,-34.583c33.333,2.083 40.833,1.667 50,-4.583c15.417,-10 15,-28.75 0,-44.583c-9.167,-9.583 -10.417,-12.917 -5.833,-15.417c4.583,-2.917 3.75,-4.583 -2.917,-8.333c-9.583,-5 -46.667,-6.25 -46.667,-1.667Z" style="fill-rule:nonzero;"/><path d="M1717.083,221.593c-27.083,21.25 -59.167,46.25 -71.25,55.417c-12.083,9.167 -62.5,48.333 -112.5,87.5c-95.833,75 -161.667,126.667 -295.417,231.25c-226.25,176.667 -216.667,167.917 -205.833,190.417c2.917,6.667 9.167,12.083 13.75,12.917c5.417,0.833 47.083,-27.917 118.75,-81.667c256.667,-192.5 595.417,-445.833 599.583,-448.75c3.75,-2.083 80,50 196.667,135c17.5,12.917 35.417,25.833 39.583,28.75c4.583,2.917 25,17.5 45.417,32.083c420,301.25 390.417,281.667 406.25,272.917c10.833,-5.833 22.083,-30.833 18.75,-41.25c-1.25,-4.167 -26.25,-25 -55.417,-46.25c-29.167,-21.667 -63.333,-46.667 -76.25,-55.833c-12.5,-9.583 -35.833,-26.25 -52.083,-37.5l-28.75,-20l2.5,-228.333l-121.25,0l0,68.75c0,37.917 -1.25,68.75 -2.5,68.75c-1.25,0 -25.417,-16.667 -53.333,-36.667c-228.333,-166.25 -311.667,-225.833 -315.417,-225.833c-1.25,0 -24.583,17.5 -51.25,38.333Zm518.333,145c0,7.5 -2.917,8.333 -35,8.333c-19.583,0 -36.667,-2.083 -37.917,-4.167c-5.833,-9.167 4.167,-12.5 37.917,-12.5c32.083,0 35,0.833 35,8.333Zm-0.833,48.75c-1.25,10.833 -2.5,11.667 -22.083,11.667c-19.583,0 -20.833,-0.833 -22.083,-11.667c-1.25,-11.25 -1.25,-11.25 22.083,-11.25c23.333,0 23.333,0 22.083,11.25Z" style="fill:#823d15;fill-rule:nonzero;"/><path d="M1889.583,475.343c-36.667,16.667 -50,36.667 -50,73.75l0,25l-15.417,-5.833c-47.083,-16.667 -99.583,10.417 -104.167,53.75c-3.333,26.667 1.25,40 17.917,55.833l14.583,13.75l-15.417,0c-56.667,0 -70,86.667 -17.083,112.083c25.833,12.5 44.167,10.833 98.333,-7.917c26.25,-9.167 61.25,-19.583 77.917,-22.917c56.667,-11.667 137.917,-6.25 181.667,12.083c8.75,3.75 16.667,6.667 17.917,6.667c1.25,0 1.25,-10 0,-22.083c-18.75,-157.5 -72.083,-267.917 -142.917,-294.583c-27.5,-10.417 -39.583,-10.417 -63.333,0.417Z" style="fill:#dc2426;fill-rule:nonzero;"/><path d="M455,686.176c-6.25,6.25 -2.083,12.917 10.833,16.25l13.333,4.167l1.25,87.083c0.417,48.333 0,91.667 -1.25,97.083c-1.25,5.833 -7.083,11.25 -14.583,14.167c-7.083,2.083 -12.5,6.667 -12.5,9.167c0,4.167 23.333,5.833 94.583,7.917c52.083,1.667 95.833,1.667 97.917,-0.417c4.167,-4.167 12.917,-62.5 10,-70c-1.25,-3.333 -7.5,-5.833 -14.583,-5.833c-9.583,0 -12.5,2.083 -14.583,11.25c-8.333,36.25 -18.75,42.917 -66.25,42.917l-23.75,0l0.833,-96.667l1.25,-96.667l13.75,-3.333c9.167,-2.5 13.333,-5.833 13.333,-11.667c0,-7.917 -2.917,-8.333 -53.333,-8.333c-29.583,0 -55,1.25 -56.25,2.917Z" style="fill-rule:nonzero;"/><path d="M760.833,686.593c-2.083,0.833 -16.25,37.083 -31.667,81.25c-45.833,131.667 -45,129.583 -57.917,135.417c-10,5 -14.167,18.333 -5.417,17.917c1.667,-0.417 20,-0.417 40.417,-0.417c29.583,0 37.5,-1.25 37.5,-5.833c0,-3.333 -5.833,-7.917 -12.917,-10.417c-11.667,-4.167 -12.5,-5.417 -10,-17.917c1.25,-7.5 4.583,-20 6.667,-27.5l4.583,-13.333l72.5,0l7.083,21.667c10.417,32.083 10.417,33.75 -1.25,36.667c-5.833,1.25 -10.833,5.833 -11.667,10.417c-1.25,7.917 1.25,8.333 54.167,7.5c44.583,-0.833 55.833,-2.083 56.667,-7.083c0.833,-3.333 -3.75,-8.333 -10,-11.667c-10.417,-4.583 -16.667,-17.917 -51.25,-110.417l-39.583,-104.583l-22.083,-1.667c-12.083,-0.833 -23.75,-0.833 -25.833,0Zm23.333,91.25l12.5,40.833l-27.083,1.25c-14.583,0.833 -27.5,0.417 -28.333,-0.417c-2.083,-2.083 24.583,-82.083 27.917,-82.083c1.25,0 7.917,18.333 15,40.417Z" style="fill-rule:nonzero;"/><path d="M177.917,852.009c-40.417,9.167 -70.833,26.25 -103.333,58.333c-32.5,32.083 -49.167,60 -65,110.417c-8.333,27.5 -9.583,39.583 -9.583,100c0,44.167 2.083,77.083 5.833,91.667c19.583,79.583 75,136.25 152.5,156.25c37.917,9.583 107.5,8.75 135.833,-1.667c21.667,-8.333 95.833,-53.333 100.833,-61.667c2.917,-4.583 -13.75,-47.083 -17.917,-47.083c-1.25,0 -11.667,7.917 -22.917,17.083c-30.417,25.417 -60.417,37.917 -96.25,40.417c-66.667,4.167 -108.333,-28.75 -130.833,-103.333c-16.667,-55.833 -18.75,-154.583 -4.167,-218.75c9.583,-42.917 35,-81.25 61.25,-92.083c18.333,-7.917 74.583,-7.5 97.917,0.833c25.833,8.75 34.583,19.583 42.5,53.75c4.167,15.833 8.333,32.5 9.167,36.25c1.667,6.25 7.083,7.5 27.083,7.5l24.583,0l0,-128.333l-11.25,-4.583c-45,-17.917 -148.75,-25.833 -196.25,-15Z" style="fill-rule:nonzero;"/><path d="M1042.083,952.426c-74.167,16.25 -110.833,57.917 -110.833,126.25c0,32.917 6.667,52.5 24.167,71.667c18.333,20.833 39.583,31.667 100.833,51.667c78.333,25.417 91.667,36.25 91.667,73.75c0,25.833 -10.417,43.333 -32.083,53.75c-15.833,7.5 -23.75,8.75 -54.583,7.083c-50.833,-2.917 -65.417,-10.417 -73.75,-39.167c-3.333,-12.083 -6.25,-23.333 -6.25,-25.417c0,-1.667 -2.083,-10.417 -4.583,-19.167c-4.167,-15 -5,-15.417 -22.5,-15.417l-18.333,0l-2.083,21.667c-1.667,12.083 -2.917,37.917 -3.75,57.5l-0.833,35.417l28.75,9.167c15.833,5 47.5,11.25 70,13.75c110.417,12.083 185,-20 205.417,-89.167c12.083,-40 5,-82.083 -17.917,-107.5c-17.5,-19.583 -32.5,-27.5 -80,-42.917c-70,-22.917 -98.333,-35 -107.083,-47.083c-23.75,-32.083 -12.083,-83.75 22.083,-97.083c17.5,-6.667 65.833,-5.417 89.583,2.5c24.167,7.917 26.25,12.083 32.917,55l5,30.417l40,0l2.5,-32.5c1.667,-17.5 3.75,-42.5 5,-55.833l2.083,-23.333l-28.333,-6.667c-72.917,-16.25 -110,-18.333 -157.083,-8.333Z" style="fill-rule:nonzero;"/><path d="M1493.75,948.676c-85.417,12.917 -142.5,62.083 -162.917,139.583c-10,37.5 -10.833,111.667 -1.667,146.667c13.75,53.333 47.083,97.5 88.75,118.75c40.833,20.833 118.75,27.917 165.833,15.417c94.167,-25 143.333,-98.333 143.333,-212.917c0,-67.917 -15.417,-112.5 -52.5,-152.083c-39.167,-42.083 -116.25,-65.417 -180.833,-55.417Zm77.917,45.417c38.333,28.333 57.083,110 47.917,206.667c-9.583,99.167 -39.167,140.833 -99.583,140.833c-34.583,0 -66.25,-28.75 -78.333,-71.667c-16.25,-58.75 -15.417,-160.417 1.667,-216.25c9.167,-29.167 27.5,-53.333 48.333,-64.167c17.917,-9.583 64.583,-6.667 80,4.583Z" style="fill-rule:nonzero;"/><path d="M612.083,965.343c-1.667,4.167 -7.083,19.583 -12.5,34.583c-20.417,55.833 -61.25,171.25 -84.583,239.583c-13.75,38.75 -25.833,74.167 -27.5,78.333c-1.667,4.167 -10.417,11.25 -19.583,15.833c-14.583,7.5 -16.25,10 -15,21.667l1.25,13.333l129.167,0l1.25,-13.333c1.25,-12.5 0.417,-13.333 -14.583,-16.25c-35,-6.25 -35.833,-9.583 -18.333,-66.25l11.25,-37.5l124.583,0l15.417,45.833c8.333,25 14.167,47.083 13.333,48.75c-0.833,1.25 -7.917,3.75 -15.417,5.417c-26.667,5.417 -27.917,6.25 -27.917,20.417l0,13.75l95.833,-0.417l95.833,0l0,-15.417c0,-14.167 -1.25,-15.417 -14.167,-17.917c-7.5,-1.667 -16.667,-5.833 -20,-10c-3.333,-3.75 -27.917,-65.417 -55,-136.25c-27.083,-71.25 -57.917,-152.083 -68.333,-180.417l-19.583,-50.833l-36.667,0c-31.25,0 -36.667,1.25 -38.75,7.083Zm60.833,225c0,4.167 -12.5,5.417 -47.917,5.417c-26.25,0 -47.917,-1.25 -47.917,-3.333c0,-3.333 38.75,-122.083 45.833,-140.417c4.583,-12.083 6.25,-8.75 27.5,60.417c12.083,40 22.5,75.417 22.5,77.917Z" style="fill-rule:nonzero;"/><path d="M1793.75,972.843c0,13.333 1.25,14.583 15.833,17.083c32.5,5.833 30,-8.333 30,169.583c0,121.667 -1.25,161.25 -5,165.833c-2.917,3.75 -13.333,8.75 -23.333,11.667c-16.667,4.583 -17.917,5.833 -16.667,18.333l1.25,13.333l137.5,0l1.25,-13.333c1.25,-12.5 0.417,-13.333 -18.75,-18.75c-14.167,-4.167 -21.25,-8.75 -24.583,-15.833c-5.417,-11.667 -11.667,-266.667 -6.667,-266.667c1.667,0 8.333,8.75 14.583,20c6.25,10.833 30.833,49.167 54.167,85c23.333,36.25 63.75,98.75 90,138.75l47.083,73.333l32.083,-1.25l31.667,-1.25l1.25,-184.167l0.833,-184.167l20,-5.833c18.333,-5.417 19.583,-6.667 20.833,-20.833l1.25,-15.417l-142.083,0l0,14.167c0,14.167 0.417,14.583 22.917,19.583c12.5,2.917 25.417,7.917 28.333,11.25c3.75,4.583 5.417,37.083 6.25,117.083c0.833,60.833 0.417,109.583 -0.833,108.333c-1.25,-1.25 -30.833,-47.917 -66.25,-104.167c-35,-55.833 -72.917,-116.25 -84.167,-133.75l-20.833,-32.5l-147.917,0l0,14.583Z" style="fill-rule:nonzero;"/><path d="M2358.75,988.259c-10.833,28.75 -37.5,104.167 -92.5,261.667c-12.917,37.917 -26.25,72.083 -29.583,75.833c-3.75,3.75 -11.667,8.333 -17.917,9.583c-9.583,2.083 -12.083,5 -13.333,17.5c-0.833,7.917 0.417,15.417 2.5,16.25c2.5,0.833 32.917,1.25 67.083,0.833l62.5,-1.25l1.25,-13.333c1.25,-11.667 0,-13.333 -12.5,-15.833c-27.917,-5.417 -28.333,-5.833 -28.333,-22.917c0,-9.167 4.583,-31.25 10.833,-50l10.417,-33.75l125.833,2.5l13.75,43.75c7.917,24.167 14.167,45.833 14.167,48.75c0,2.5 -6.25,5.833 -13.333,7.5c-27.083,5.417 -28.333,6.25 -28.333,20.417l0,13.75l95.833,-0.417l96.25,0l-1.25,-14.583c-1.25,-12.917 -2.917,-15.417 -16.667,-19.167c-8.333,-2.5 -17.083,-6.25 -19.167,-8.333c-3.333,-3.75 -17.917,-40 -59.167,-147.917c-6.25,-17.083 -28.333,-73.75 -48.333,-126.25l-36.667,-94.583l-71.25,0l-12.083,30Zm47.083,126.667c11.667,36.667 22.083,70 23.75,73.75c2.5,6.25 -2.5,7.083 -48.333,7.083c-50.417,0 -50.417,0 -47.917,-9.583c1.667,-5 12.917,-38.75 25.417,-75.417c12.5,-36.25 22.5,-67.083 22.917,-68.75c0.417,-3.75 1.667,0 24.167,72.917Z" style="fill-rule:nonzero;"/><path d="M16.25,1439.093c-1.25,3.333 -1.667,12.083 -0.833,20l1.25,13.75l1307.5,1.25l1307.5,0.833l-1.25,-19.583l-1.25,-20l-1305.417,-1.25c-1118.333,-0.833 -1305.417,0 -1307.5,5Z" style="fill:#dc2426;fill-rule:nonzero;"/><path d="M770.833,1582.843c-26.667,6.667 -44.583,20.833 -54.583,45c-13.333,30.833 -2.083,75 23.75,92.917c16.25,11.667 53.75,15.833 75.833,8.75c42.917,-14.167 61.667,-77.917 35,-117.5c-15.833,-23.75 -50,-36.25 -80,-29.167Zm30.833,25.833c29.167,10.417 36.25,64.167 12.083,90c-12.083,12.917 -41.25,13.333 -53.333,1.25c-25,-25 -20.833,-73.75 7.5,-89.167c13.75,-7.917 17.083,-7.917 33.75,-2.083Z" style="fill:#dc2426;fill-rule:nonzero;"/><path d="M941.25,1587.426c-18.333,9.167 -26.667,22.083 -26.667,41.667c0,17.917 15.417,32.083 45.833,42.5c28.75,10.417 36.667,20.833 22.5,31.25c-10.417,7.5 -26.667,6.667 -45,-2.5c-15.417,-8.333 -15.833,-8.333 -24.167,-0.417c-19.167,17.5 10.833,35 55.417,32.5c32.917,-1.667 47.5,-11.667 52.083,-35.833c5,-25.417 -5.417,-38.75 -40.417,-52.917c-26.667,-10.833 -30.833,-14.167 -30.833,-22.917c0,-14.583 17.083,-20 35.417,-11.25c12.917,6.667 13.75,6.667 21.25,-2.5c7.5,-9.167 7.5,-9.167 -0.833,-16.667c-5,-3.75 -13.75,-7.083 -20,-7.083c-5.833,0 -14.583,-1.25 -19.167,-2.083c-4.583,-1.25 -15.833,1.667 -25.417,6.25Z" style="fill:#dc2426;fill-rule:nonzero;"/><path d="M2357.5,1584.093c-17.917,4.583 -34.583,25.417 -34.583,42.917c0,20 14.167,33.75 45.833,44.583c18.75,6.667 27.5,12.083 28.333,17.5c3.75,18.333 -28.75,25.417 -51.667,11.25l-13.333,-7.917l-9.583,10c-8.333,8.75 -8.75,10.833 -3.333,15.833c9.167,8.75 32.083,15 55.833,15c37.083,0 60.417,-23.75 53.75,-55.417c-2.917,-13.333 -22.083,-29.167 -45.417,-36.25c-9.167,-2.917 -19.167,-7.083 -21.667,-9.583c-8.75,-6.667 -6.25,-19.583 5,-24.583c8.75,-3.75 13.75,-3.333 25.833,2.5c15,7.083 15.417,7.083 22.917,-2.5c9.583,-12.917 9.583,-14.167 -3.75,-19.167c-17.5,-6.667 -39.583,-8.333 -54.167,-4.167Z" style="fill:#dc2426;fill-rule:nonzero;"/><path d="M60.417,1656.176c0,69.167 0.417,72.917 7.917,72.917c4.583,0 10.833,1.25 14.583,2.5c5.833,2.083 6.667,-1.25 6.667,-22.5l0,-25.417l24.167,-2.917c42.5,-5 55,-16.25 55,-48.75c0,-35.417 -21.25,-48.75 -77.917,-48.75l-30.417,0l0,72.917Zm66.667,-43.75c9.583,5 14.167,22.917 8.333,33.333c-3.333,6.667 -8.75,8.333 -25,8.333l-20.833,0l0,-20c0,-11.25 1.25,-21.667 2.917,-22.917c4.167,-4.167 25.833,-3.333 34.583,1.25Z" style="fill:#dc2426;fill-rule:nonzero;"/><path d="M250.833,1592.843c-23.333,14.167 -33.333,33.333 -33.75,63.333c0,29.583 7.917,46.667 29.167,63.333c12.5,9.167 20.417,11.667 42.917,12.917c35,1.667 55.417,-9.167 70.417,-36.667c8.333,-15.833 9.583,-22.917 7.917,-45.417c-2.083,-29.167 -9.583,-42.5 -32.083,-57.917c-19.583,-13.333 -62.083,-12.917 -84.583,0.417Zm67.917,22.917c21.25,21.667 20.833,65.833 -0.833,85c-13.75,12.083 -39.167,10 -53.75,-4.583c-10.417,-10.833 -12.083,-15.417 -12.083,-35.833c0,-26.25 8.333,-46.667 22.083,-52.083c17.5,-7.083 32.5,-4.583 44.583,7.5Z" style="fill:#dc2426;fill-rule:nonzero;"/><path d="M427.083,1583.259l0,145.833l91.667,0l0,-25l-62.5,0l0,-120.833l-29.167,0Z" style="fill:#dc2426;fill-rule:nonzero;"/><path d="M572.917,1582.843l0,146.25l96.25,0l-1.25,-11.667c-1.25,-10.833 -2.083,-11.25 -31.667,-13.333l-30.833,-2.083l-0.417,-58.333l-0.833,-58.333l-15.417,-1.25l-15.833,-1.25Z" style="fill:#dc2426;fill-rule:nonzero;"/><path d="M1197.5,1594.509c-6.25,15.833 -45.833,127.5 -46.667,132.083c-0.417,2.083 5.417,3.75 13.333,3.75c12.083,0.417 15,-1.667 20.833,-14.167c6.25,-13.75 7.5,-14.167 32.083,-15.417l25.417,-1.25l7.083,16.667c6.25,15.833 7.5,16.667 20,14.167c7.5,-1.25 15,-3.333 16.667,-5c1.25,-1.25 -1.667,-13.75 -7.083,-27.5c-5.417,-13.75 -17.083,-44.583 -26.25,-68.75l-16.25,-43.75l-17.5,-1.25c-15.417,-1.25 -17.5,0 -21.667,10.417Zm31.25,59.167c3.75,12.5 6.667,23.333 6.667,24.167c0,0.833 -7.5,1.25 -16.667,1.25c-11.25,0 -16.667,-1.667 -16.667,-5.833c0,-11.25 13.75,-48.75 17.083,-45.417c1.667,1.667 5.833,13.333 9.583,25.833Z" style="fill:#dc2426;fill-rule:nonzero;"/><path d="M1414.583,1583.259l0,145.833l95.833,0l0,-25l-62.5,0l0,-120.833l-33.333,0Z" style="fill:#dc2426;fill-rule:nonzero;"/><path d="M1594.583,1604.926c-17.5,47.083 -37.917,105.833 -40.417,115.833c-2.083,9.583 -1.25,10.417 12.917,10.417c13.75,0 15.417,-1.25 20,-14.583c4.583,-14.583 5,-14.583 30.833,-15.833l26.25,-1.25l6.667,17.083c6.667,16.25 7.083,16.667 21.667,14.167c8.333,-1.667 15.833,-3.333 16.667,-4.167c0.833,-0.833 -10.417,-33.333 -24.583,-72.5l-26.667,-70.833l-17.5,0c-17.5,0 -17.917,0.417 -25.833,21.667Zm33.75,40.417c10.833,30.417 10,33.75 -9.583,33.75c-10,0 -16.667,-2.083 -16.667,-5c0,-7.917 13.75,-49.167 16.25,-49.167c1.667,0 5.833,9.167 10,20.417Z" style="fill:#dc2426;fill-rule:nonzero;"/><path d="M1814.583,1582.426l0,146.667l37.083,0c45.833,0 60.417,-4.583 68.75,-22.917c9.167,-19.583 8.333,-25.833 -5.833,-40.417c-14.167,-14.167 -15,-17.083 -6.25,-24.167c4.583,-3.75 6.25,-10.833 5.417,-22.083c-2.083,-25.833 -15,-33.333 -61.667,-35.417l-37.5,-1.667Zm64.167,31.25c12.083,8.75 7.083,25 -8.75,29.167c-19.167,5.833 -26.25,1.667 -26.25,-15c0,-7.917 1.25,-15.417 2.917,-16.667c4.583,-5 24.167,-3.333 32.083,2.5Zm8.333,61.667c3.75,5.833 5,12.083 2.917,17.917c-2.917,7.083 -6.667,8.75 -23.75,8.75c-19.167,0 -20.417,-0.833 -21.667,-11.667c-2.083,-19.167 1.667,-23.75 19.583,-23.75c12.083,0 18.333,2.5 22.917,8.75Z" style="fill:#dc2426;fill-rule:nonzero;"/><path d="M1984.167,1586.176c-1.667,1.25 -2.917,34.167 -2.917,72.917l0,70l33.333,0l0,-25c0,-32.5 6.25,-32.5 25,0c14.583,25 14.583,25 34.583,25l20,0l-17.083,-22.083c-17.083,-22.917 -21.25,-36.25 -10.833,-36.25c3.333,0 10.833,-5.833 17.083,-13.333c9.583,-11.25 10.833,-16.25 9.167,-31.25c-2.083,-20.417 -13.333,-32.083 -36.25,-38.75c-16.25,-4.583 -67.917,-5.833 -72.083,-1.25Zm67.083,28.75c10,7.083 12.5,25.833 4.167,34.167c-2.917,2.917 -12.917,5 -22.917,5l-17.917,0l0,-20c0,-11.25 1.25,-21.667 2.917,-22.917c5,-5 24.167,-2.917 33.75,3.75Z" style="fill:#dc2426;fill-rule:nonzero;"/><path d="M2187.5,1588.259c-0.833,2.917 -12.083,35 -24.583,71.25c-12.917,36.25 -23.333,67.5 -23.333,69.167c0,2.083 6.667,3.333 15,3.333c13.333,-0.833 15.833,-2.5 20,-15.417c4.583,-14.583 5,-14.583 30.417,-15.833l25.833,-1.25l7.5,15.417c4.167,8.333 8.75,15 10.833,14.583c1.667,0 8.75,-0.417 15.417,-0.417c7.083,0 12.5,-1.667 12.5,-4.167c0,-2.083 -11.25,-35 -25.417,-72.917l-25.417,-68.75l-18.333,0c-11.25,0 -19.167,2.083 -20.417,5Zm35,83.333c0.417,5.833 -2.917,7.5 -16.667,7.5c-17.083,0 -17.083,-0.417 -15,-12.083c1.667,-7.083 5.833,-19.583 9.583,-28.333l6.667,-15.833l7.5,20.833c4.167,11.25 7.917,24.167 7.917,27.917Z" style="fill:#dc2426;fill-rule:nonzero;"/><path d="M2521.667,1586.593c-1.25,1.667 -8.75,22.083 -16.667,45c-8.333,22.5 -19.167,53.75 -25,69.167c-5.833,15.833 -10,28.333 -10,28.75c0.417,0 7.917,0.833 16.25,1.667c15,1.25 15.833,0.417 20,-15l4.583,-16.667l27.5,1.25c27.5,1.25 27.5,1.25 32.5,15.833c4.583,13.75 6.25,14.583 21.25,13.333c8.75,-0.833 16.667,-2.083 17.083,-2.5c1.667,-1.25 -27.917,-82.917 -41.667,-117.083c-10,-24.167 -10.833,-25 -27.083,-26.25c-9.167,-0.833 -17.917,0.417 -18.75,2.5Zm27.5,65c3.75,11.25 5.833,21.667 4.583,23.75c-2.5,4.167 -27.917,5 -32.083,1.25c-1.25,-1.25 1.667,-13.333 6.667,-27.083c4.583,-13.333 10,-23.333 11.667,-21.667c1.25,2.083 5.833,12.5 9.167,23.75Z" style="fill:#dc2426;fill-rule:nonzero;"/></svg>